<?xml version="1.0" standalone="no"?>
<!DOCTYPE svg PUBLIC "-//W3C//DTD SVG 1.1//EN" "http://www.w3.org/Graphics/SVG/1.1/DTD/svg11.dtd" >
<svg xmlns="http://www.w3.org/2000/svg" xmlns:xlink="http://www.w3.org/1999/xlink" version="1.1">
<metadata>
Created by FontForge 20170731 at Sat Jan 18 05:39:50 2014
 By Aleksey,,,
Copyright (c) 2014 by Seniors Studio. All rights reserved.
</metadata>
<defs>
<font id="BlendaScript" horiz-adv-x="497" >
  <font-face 
    font-family="Blenda Script"
    font-weight="400"
    font-stretch="normal"
    units-per-em="1000"
    panose-1="2 0 8 4 0 0 0 2 0 3"
    ascent="800"
    descent="-200"
    x-height="500"
    cap-height="752"
    bbox="-2749 -425 1869 1000"
    underline-thickness="50"
    underline-position="-200"
    unicode-range="U+0020-FB04"
  />
<missing-glyph horiz-adv-x="215" 
 />
    <glyph glyph-name="oe" unicode="oe" horiz-adv-x="698" 
d="M736 157q-35 -70 -95.5 -117.5t-128.5 -46.5q-37 1 -80 22q-48 27 -66 68q-42 -46 -96.5 -69t-104 -21t-90.5 28t-59 72q-13 34 -10 80q3 60 19 112.5t41 89t56.5 64.5t65.5 43t69 20t66.5 -1t58.5 -22.5t45 -42.5q52 54 119.5 66t109.5 -20q42 -31 52 -84t-13 -95
q-31 -62 -92 -90t-137 -25q3 -30 10 -47q10 -28 28 -48q20 -22 41 -28q25 -9 51 0t50.5 33t39.5 43.5t34 47.5zM466 246q0 -1 -0.5 -5.5t-0.5 -6.5q50 -1 86.5 18.5t52.5 48.5t22.5 60t2.5 54.5t-14 29.5q-31 16 -57 0.5t-46 -54t-31.5 -77t-14.5 -68.5zM328 253
q-50 11 -96 50l55 69q21 -19 41 -28q-13 72 -55 93q-46 24 -87 -39q-33 -52 -52 -149q-10 -61 1 -105q25 -93 71 -89q43 3 83 82q26 51 38 113l1 1v2z" />
    <glyph glyph-name="ij" unicode="ij" horiz-adv-x="511" 
d="M98 633q0 32 22 56q26 24 57 24q33 0 56 -24q23 -23 22 -56q0 -32 -24 -54q-24 -24 -57 -24q-32 0 -55 24q-23 21 -21 54zM523 500l-72 -360q-11 -58 -20.5 -99.5t-26.5 -91t-36.5 -81.5t-50.5 -62t-68.5 -42.5t-90 -12.5t-115.5 18l94 97q69 -55 116 -27l3 17l128 644
h139zM394 633q0 32 24 56t56 24q34 0 56 -24q22 -22 22 -56q-2 -33 -24 -54q-22 -24 -57 -24q-33 0 -55 24q-23 22 -22 54zM249 41q-59 -45 -119 -49.5t-95 44t-16 145.5l67 319h138q-15 -81 -40.5 -205.5t-36.5 -187.5q-10 -49 13.5 -56.5t69.5 13.5q8 -13 19 -23z" />
    <glyph glyph-name="OE" unicode="OE" horiz-adv-x="853" 
d="M148 446l-146 -91q-15 101 32.5 188.5t126.5 141.5q77 51 171.5 65.5t176.5 -11.5l13 13h454l-47 -89h-294q61 -69 64 -173v-23h151l-45 -88h-113q-10 -54 -25 -102q-18 -56 -46 -106q-24 -45 -60 -81h220l-39 -90h-351q-23 -3 -45 -3q-45 0 -75 11q-34 10 -60 35
q-27 28 -38 60q-15 39 -16 91q0 48 6 89q20 162 136 340l156 18q-129 -191 -152 -333q-7 -48 -6.5 -90t11 -69.5t25.5 -45t36.5 -18t43.5 12.5t46.5 46.5t46.5 83.5q26 61 45 144q15 82 14 159q-2 70 -37 111.5t-86.5 50.5t-108.5 -2.5t-107 -40.5q-62 -35 -85 -91.5
t7 -112.5z" />
    <glyph glyph-name="fi.from" unicode="fi" horiz-adv-x="521" 
d="M580 179h41q-37 -100 -126 -154q-81 -48 -144 -23q-72 28 -65 139q2 21 6 44l52 254h-122l-138 -689h-145q52 268 141 689h-64l26 61h53q49 177 185 231q93 37 182 4q61 -22 71 -61q1 -6 1 -12q0 -35 -24 -56q-23 -23 -57 -23q-20 0 -35.5 9.5t-27 23t-23 27.5
t-28.5 24.5t-37 12.5q-11 2 -32 -9l-3 -17l-31 -154h261q-68 -341 -77 -389q-11 -59 28 -57t87 53q32 35 45 72z" />
    <glyph glyph-name="fl" unicode="fl" horiz-adv-x="542" 
d="M591 181h40q-38 -103 -127 -156q-81 -49 -143 -23q-73 30 -63 144l6 42l86 433q-55 44 -81 47q-12 2 -34 -9l-3 -16l-28 -143h82l-30 -60h-65l-139 -690h-146q20 96 68 328t74 362h-64l26 60h53q14 51 32 91t44 76t63.5 57.5t83.5 24.5q34 2 64 -2q2 0 6 -1t8.5 -1.5
t9.5 -1.5l5 -1q10 -2 23 -5t44.5 -10.5t64.5 -14.5q-20 -110 -68 -346t-51 -253q-12 -61 26 -59q37 1 86 53q33 36 47 74z" />
    <glyph glyph-name="ffi" unicode="ffi" horiz-adv-x="765" 
d="M102 500h52q37 127 103.5 192t183.5 51q18 -2 99 -24l3 -1q70 37 136 32t113 -36t46 -67q0 -36 -25 -57q-26 -24 -56 -24q-24 0 -43.5 14.5t-31 32t-31.5 33.5t-44 18q-12 2 -34 -8l-3 -17l-27 -139h121h86h53q-16 -83 -40 -205t-35 -183q-12 -59 27 -57q38 2 86 51
q33 36 46 73h41q-37 -101 -127 -154q-80 -48 -143 -23q-73 29 -64 142q2 20 6 42l51 254h-121l-139 -690l-144 1q56 287 140 689h-40h-64l-139 -690l-144 1q26 134 75 370.5t65 318.5h-63zM448 620l-7 5q-52 37 -80 39q-15 2 -34 -8l-4 -17l-27 -139h52h28h26q20 79 46 120z
" />
    <glyph glyph-name="ffl" unicode="ffl" horiz-adv-x="780" 
d="M828 181h40q-37 -101 -125 -155q-80 -48 -143 -23q-72 28 -64 141l6 44l87 429q-22 14 -60 41q-35 20 -64 1l-4 -16l-28 -143h81l-30 -62h-64l-138 -688h-145q79 399 139 688h-11h-66l-138 -688h-145q72 370 139 688h-64l25 62h54q43 154 130 213.5t237 17.5
q27 12 57.5 16.5t68 0.5t60.5 -8t69 -15.5t59 -14.5q-18 -94 -64.5 -315.5t-57.5 -282.5q-12 -60 26 -58t86 54q34 35 47 73zM331 500q24 89 49 135q-35 28 -54.5 32.5t-40.5 -8.5l-4 -16l-29 -143h27h52z" />
    <glyph glyph-name="F_i" unicode="Fi" horiz-adv-x="818" 
d="M874 175h39q-37 -100 -125 -152q-79 -46 -140 -20q-71 30 -59 144q1 16 5 34l64 319h137q-18 -94 -44 -222.5t-34 -169.5q-10 -57 27 -55q38 1 85 52q32 34 45 70zM452 462h142l-19 -88h-142q-4 -22 -31 -160.5t-42 -213.5h-140l134 666q-131 -14 -176 -53
q-29 -23 -28 -76t33 -108l-138 -63q-24 203 79 295q81 70 242 85q57 6 107 6h213l-29 -90h-166zM692 569q-22 22 -22 54q2 35 24 56q23 23 54 23q32 0 55 -23q22 -22 22 -56q-1 -31 -24 -54q-23 -22 -56 -22q-32 0 -53 22z" />
    <glyph glyph-name="T_h" unicode="Th" horiz-adv-x="1008" 
d="M1076 171h39q-40 -112 -133 -157q-77 -37 -137 -8q-62 31 -53 113q1 6 2 13q7 36 22.5 125.5t23.5 133.5q11 60 -21 58q-33 -3 -76 -55q-16 -20 -28 -42l-69 -352h-138l125 621q-53 -5 -139 14l-133 -635h-136l138 658q-168 20 -207 -44q-14 -28 -7.5 -77t28.5 -105
l-136 -62q-21 231 72 319q100 95 354 39q60 -14 100 -20t87 -8t82 10.5t58 39.5l-62 -317q40 43 86.5 60.5t84 8.5t56.5 -57t4 -126q-7 -36 -36 -214q-12 -59 25 -57q36 2 81 52q31 35 43 71z" />
    <glyph glyph-name="T_i" unicode="Ti" horiz-adv-x="783" 
d="M645 621q-55 -2 -137 14l-133 -635h-136l138 659q-156 17 -200 -37q-19 -25 -14 -77.5t30 -110.5l-136 -61q-21 221 67 311q100 102 356 44q61 -13 99.5 -19.5t86.5 -8.5t82 10.5t57 39.5q-7 -38 -30 -70q0 -1 1 -3q22 -21 21 -52q0 -33 -23 -53q-23 -23 -54 -23t-54 23
q-19 19 -21 49zM847 172h38q-36 -98 -122 -148q-78 -47 -138 -21q-70 31 -58 144q2 15 5 31l63 322h134q-18 -94 -43.5 -229t-31.5 -164q-11 -56 26 -54q38 1 84 51q31 33 43 68z" />
    <glyph glyph-name="a_x" unicode="ax" horiz-adv-x="949" 
d="M994 172h43q-1 -53 -29.5 -95t-70 -61.5t-85.5 -22t-80.5 22t-50.5 71.5l-30 94q-84 -89 -118 -118q-107 -89 -191 -64q-53 17 -61 98q-26 -39 -61.5 -64.5t-71 -34t-70.5 -1.5t-61 27.5t-40 59t-10 88.5q6 64 24 119.5t49.5 103t82 75.5t115.5 30h251l-81 -383
q-6 -44 11 -52q40 -22 216 176l-75 259h25h117l46 -158q56 60 142 158h67l-192 -217l57 -202q13 -44 56 -27q38 16 62 62q14 28 14 56zM327 160l47 250q-37 67 -97 35q-58 -30 -95 -122q-14 -35 -22 -72q-30 -146 17.5 -183t149.5 92z" />
    <glyph glyph-name="a_z" unicode="az" horiz-adv-x="995" 
d="M765 87q56 14 119 8.5t113 -29.5l-81 -66q-167 36 -333 4l-19 -4l258 444h-157l24 56h316zM438 110q-4 -27 3 -41.5t20.5 -15.5t28.5 3.5t32 14.5l24 -26q-48 -38 -100 -48t-90 16t-43 86q-39 -60 -96.5 -86.5t-107.5 -17t-82.5 57t-25.5 123.5q5 62 23.5 117t49.5 102
t81.5 75t114.5 30h248l-7 -39q-12 -61 -39.5 -184.5t-33.5 -166.5zM320 181l45 228q-39 68 -100 32q-58 -34 -95 -134l-16 -56q-12 -54 -12.5 -97.5t12 -66.5t34 -26.5t55 23t74.5 80.5q0 10 3 17z" />
    <glyph glyph-name="c_x" unicode="cx" horiz-adv-x="807" 
d="M328 102l27 -29q-79 -75 -180 -79q-69 -2 -111.5 36.5t-51 98.5t2.5 130q14 78 56 141.5t106 89.5q40 17 76.5 14.5t62.5 -22.5q38 -30 43.5 -83t-19.5 -93q-8 -16 -15 -24l-44 81q33 70 14 83q-20 14 -55 -10q-71 -50 -95 -187q-11 -73 5 -119.5t52 -60.5q56 -22 126 33
zM850 173h43q-1 -53 -30 -95t-70.5 -61t-85.5 -21.5t-81 22t-50 71.5l-18 61l-132 -150h-68q31 35 94.5 107t89.5 101l-85 292h141l46 -158q19 21 68.5 76.5t71.5 81.5h69l-194 -217l59 -201q12 -44 55 -27q39 16 63 63q14 28 14 55z" />
    <glyph glyph-name="c_z" unicode="cz" horiz-adv-x="804" 
d="M331 281l-46 81q36 70 17 84q-21 13 -57 -10q-73 -52 -96 -188q-10 -73 6 -119t52 -61q58 -21 126 33l28 -28q-81 -75 -180 -79q-70 -2 -113 36.5t-51.5 98.5t2.5 131q16 78 58 141t106 90q81 34 138 -9q37 -29 42.5 -83t-18.5 -95q-2 -5 -7.5 -13t-6.5 -10zM576 88
q58 13 120.5 7t113.5 -29l-82 -66q-166 36 -332 5l-21 -5l259 445h-157l25 55h316z" />
    <glyph glyph-name="e_x" unicode="ex" horiz-adv-x="763" 
d="M337 103l26 -29q-88 -83 -191 -80q-68 2 -108.5 43t-48 100.5t8 127t51.5 123.5q27 42 64 71t73.5 39.5t70 7t55.5 -21.5q36 -31 40.5 -83t-20.5 -94q-32 -59 -89 -86.5t-124 -24.5q1 -41 16 -76.5t45 -48.5q56 -29 131 32zM147 254v-12q32 -1 59 9t44.5 27t30.5 37.5
t18.5 42t7.5 40.5t-0.5 32t-8.5 17q-16 12 -45.5 -4t-54.5 -56q-34 -50 -51 -133zM859 171h43q-1 -44 -21.5 -81.5t-52 -59.5t-69.5 -32t-72.5 -4.5t-63 29.5t-39.5 63l-18 61l-130 -147h-69q34 38 182 204l-85 296h26h115l46 -161q25 28 75 84.5t68 76.5h68l-194 -220
l58 -202q13 -43 55 -26q40 16 64 63q14 28 14 56z" />
    <glyph glyph-name="e_z" unicode="ez" horiz-adv-x="796" 
d="M566 88q125 28 233 -23l-82 -65q-166 35 -332 4l-20 -5l259 445h-156l24 56h316zM344 308q-31 -60 -88 -87.5t-125 -24.5q2 -97 61 -126q58 -29 130 34l28 -31q-89 -82 -192 -79q-68 2 -108 43t-47.5 100.5t7.5 127t51 122.5q27 43 64.5 71.5t74 39t69.5 7t55 -21.5
q35 -29 40 -81t-20 -94zM134 252q0 -7 -1 -10q45 -1 79 18t51 47.5t25 58.5t6 53t-10 29q-16 11 -46 -5t-56 -56q-33 -55 -48 -135z" />
    <glyph glyph-name="f_f_t" unicode="fft" horiz-adv-x="797" 
d="M848 179h41q-38 -101 -127 -154q-81 -48 -143 -23q-73 29 -64 140q1 21 6 44l54 254h-64h-72l-139 -690h-144q35 180 140 690h-102l-137 -690h-144q50 263 140 690h-64l25 60h54q17 61 39.5 106.5t56 81.5t81.5 51.5t109 7.5q45 -4 96 -20q35 19 84 22q65 3 158 -22
l78 -18l-42 -209h84l-30 -60h-66l-64 -327q-13 -61 26 -59q38 3 85 54q32 34 45 71zM350 500q3 14 12.5 68.5t14.5 73.5q-30 23 -64 27q-12 2 -33 -9l-4 -17l-28 -143h102zM627 500q15 76 12 101q-7 60 -79 68h-2q-12 2 -34 -9l-31 -160h134z" />
    <glyph glyph-name="f_t" unicode="ft" horiz-adv-x="562" 
d="M602 180h40q-38 -101 -128 -155q-81 -49 -144 -23q-73 29 -63 142q1 21 6 44l54 252h-65h-72l-139 -690h-146q70 353 142 690h-65l26 60h53q31 109 82.5 176t140.5 73q35 2 64 -2q17 -2 24 -4q26 -5 72 -16l76 -19l-40 -208h6v-1h77l-29 -59h-67l-64 -328q-12 -60 26 -58
q39 1 87 54q33 35 46 72zM379 500q1 4 4 20.5l4 22t2.5 21t1 22t-2 19.5t-5.5 19t-10 15.5t-15 14t-22 9t-29 6.5q-12 1 -34 -9l-30 -160h136z" />
    <glyph glyph-name="f_u" unicode="fu" horiz-adv-x="795" 
d="M863 180h40q-37 -103 -122 -156q-77 -47 -135 -21q-46 21 -56 85q-40 -51 -92 -75t-94.5 -17t-64.5 56.5t-6 134.5l50 253h-149l-139 -690h-144q20 100 140 690h-63l26 60h52q14 51 32 91t44 76t63 57.5t83 24.5q35 2 64 -2q27 -3 104 -22l-102 -106q-55 47 -82 49
q-14 3 -34 -9l-31 -159h289q-13 -69 -38 -196.5t-36 -191.5q-12 -63 21 -60t77 58q17 21 29 43q1 2 3.5 19t18 102t43.5 226h141q-11 -61 -36 -190t-37 -198q-11 -60 23 -57.5t76 53.5q30 35 42 72z" />
    <glyph glyph-name="f_x" unicode="fx" horiz-adv-x="730" 
d="M778 175h44q-1 -45 -22 -82.5t-53 -60t-70.5 -32.5t-73.5 -5t-63.5 29t-40.5 64l-21 60l-131 -148h-70q129 145 185 206l-69 236h-162l-140 -692h-139q26 135 80 398.5t60 293.5h-62l26 58h51q28 101 85.5 172t142.5 77q34 2 61 -2q31 -3 99 -21l-97 -102q-58 46 -79 47
q-17 1 -33 -9l-42 -162h277l44 -157q23 26 73.5 79t72.5 78h70l-200 -216l63 -202q12 -43 54 -26q40 15 65 63q15 28 15 56z" />
    <glyph glyph-name="g_p" unicode="gp" horiz-adv-x="995" 
d="M748 469q78 52 132.5 30t83.5 -82t28 -134q-2 -108 -45 -185q-31 -51 -61 -74q-40 -30 -103 -30q-32 0 -70.5 11.5t-53.5 28.5l-55 -284h-142l59 293q-18 -10 -93 -41q-33 -129 -59 -171q-22 -32 -46 -51q-27 -19 -51 -24q-26 -6 -49 -6q-21 0 -39 7q-16 7 -33 22
q-14 14 -21 34q-7 18 -6 44q3 34 17.5 60t40.5 43t50.5 27.5t61.5 21.5q3 15 13 67q-40 -51 -96.5 -71t-105 -8.5t-80 58.5t-25.5 119q7 82 33 146t62.5 101t76 56t79.5 21q9 0 28 0.5t28 1.5h141h85q-3 -14 -18.5 -95.5t-35 -174.5t-37.5 -170q64 36 93 54l78 386h142z
M270 -85q6 22 13 49q-25 -11 -39 -18t-33 -19.5t-27 -26t-7 -29.5q0 -12 8 -23q11 -12 25 -12t30 19q19 19 30 60zM324 161l48 243q-37 70 -98 41q-57 -27 -95 -120q-14 -34 -22 -72q-31 -147 17 -185.5t150 93.5zM848 222q22 116 -2 180q-26 72 -107 17l-69 -327
q22 -29 47 -34.5t46 7t38 37.5q35 45 47 120z" />
    <glyph glyph-name="i_z" unicode="iz" horiz-adv-x="685" 
d="M141 109q-9 -50 15 -57.5t68 13.5q1 -2 20 -23q-34 -26 -71 -38t-70 -8.5t-57 24t-32.5 61t2.5 101.5l65 318h138q-18 -92 -43.5 -218t-34.5 -173zM173 713q32 0 56 -24q22 -22 22 -55q-1 -32 -24 -55q-24 -23 -57 -23t-55 23q-22 24 -21 55q2 34 24 55q22 24 55 24z
M467 89q128 28 233 -23l-81 -65q-166 35 -332 4l-20 -4l258 444h-156l24 55h316z" />
    <glyph glyph-name="l_x" unicode="lx" horiz-adv-x="705" 
d="M750 174h43q-1 -53 -29.5 -95t-70 -61t-85.5 -22t-80.5 21.5t-50.5 71.5l-16 60l-133 -149h-68q101 114 184 207l-85 293h140l46 -159q19 20 140 159h68l-191 -217l56 -201q13 -43 56 -26q39 16 62 63q14 28 14 55zM252 700q-15 -81 -64.5 -318.5t-55.5 -276.5
q-5 -35 9 -48.5t33 -10t41 15.5l20 -21q-33 -25 -69 -37t-67.5 -9t-55.5 22.5t-32 58.5t3 99l105 525h133z" />
    <glyph glyph-name="l_z" unicode="lz" horiz-adv-x="656" 
d="M115 107q-6 -35 8 -49t33.5 -11t42.5 15l19 -22q-33 -25 -69.5 -37t-68.5 -9t-56 23t-32.5 59.5t2.5 99.5l107 524h133q-15 -81 -64 -317.5t-55 -275.5zM446 87q58 15 120.5 9t112.5 -30l-80 -65q-169 37 -334 3l-19 -4l259 444h-157l24 56h316z" />
    <glyph glyph-name="m_x" unicode="mx" horiz-adv-x="1134" 
d="M1168 170h42q-1 -64 -43.5 -110t-96 -59.5t-104.5 8t-67 78.5l-14 45q-53 -69 -127 -105.5t-137 -31.5t-89 48t-11 110l46 237q11 58 -18 56q-30 -2 -71 -55q-22 -31 -35 -62q-1 -4 -1 -7q-1 -7 -15.5 -87t-27 -151.5t-15.5 -83.5h-132q16 89 38.5 219t29.5 171
q10 58 -22.5 56.5t-72.5 -51.5q-17 -22 -28 -44q0 -1 -0.5 -3t-1.5 -3l-69 -345h-140l98 500h141l-14 -66q41 47 95 65t95.5 -6.5t45.5 -88.5q32 43 71 69.5t73.5 31t62 -12t36.5 -60.5t-3 -114l-16 -80q-26 -123 -22 -131q9 -20 37 -20.5t62 13.5t67.5 39t52.5 52
q-27 90 -88 309h138l55 -192q52 57 130 192h73q-86 -156 -181 -268l43 -150q12 -43 53 -26q39 15 63 60q14 27 14 54z" />
    <glyph glyph-name="m_z" unicode="mz" horiz-adv-x="1180" 
d="M955 88q58 13 120.5 7t113.5 -30l-81 -66q-169 36 -335 4l-20 -4l260 446h-156l23 55h317zM629 107q-6 -30 7 -43t33.5 -11t42.5 13l21 -20q-56 -46 -115.5 -52.5t-95 34.5t-19.5 122l46 237q12 60 -18 57t-70 -56q-22 -30 -34 -61q-2 -4 -2 -9q-3 -15 -28.5 -159.5
t-28.5 -158.5h-134q12 67 67 387q10 58 -22.5 56.5t-72.5 -51.5q-17 -22 -28 -44q-2 -2 -2 -6l-68 -342h-141l99 500h142l-14 -69q40 49 94 66.5t95.5 -7t46.5 -88.5q31 42 70 69t74 31.5t63 -12t37 -61t-3 -114.5l-16 -79q-4 -17 -11.5 -55.5t-14.5 -73.5z" />
    <glyph glyph-name="t_x" unicode="tx" horiz-adv-x="730" 
d="M776 172h41q-1 -52 -29.5 -94.5t-70 -61.5t-85 -22t-80.5 21.5t-50 71.5l-18 62l-131 -149h-69q33 36 183 208l-86 292h26h116l45 -160q67 74 142 160h68l-193 -218l57 -202q13 -43 56 -26q40 16 64 63q14 28 14 55zM150 110q-10 -51 14 -58.5t70 13.5q1 -2 8.5 -10
t11.5 -13q-35 -27 -73 -39.5t-71.5 -9t-58 25t-33 62.5t2.5 104l55 253h-64l25 62h51l25 131l149 28q-2 -12 -8.5 -45.5t-12 -63t-10.5 -50.5h83l-30 -62h-65q-13 -62 -37 -174t-32 -154z" />
    <glyph glyph-name="t_z" unicode="tz" horiz-adv-x="736" 
d="M147 110q-10 -51 13.5 -58.5t69.5 13.5q2 -2 9.5 -10.5t11.5 -12.5q-35 -26 -73 -38.5t-71.5 -9t-58 24.5t-33 62t2.5 103l54 260h-64l26 61h51l25 125l148 27q-26 -131 -31 -152h83l-30 -61h-64q-65 -309 -69 -334zM487 88q128 28 233 -22l-81 -65q-168 37 -332 4
l-20 -5l259 444h-157l23 56h317z" />
    <glyph glyph-name="u_v" unicode="uv" horiz-adv-x="915" 
d="M265 146l67 354h135q-54 -295 -96 -500h-137q9 43 13 60q-32 -32 -68.5 -49.5t-69 -17t-58 20t-34 61t2.5 105.5l63 320h135q-14 -82 -39.5 -209.5t-34.5 -182.5q-12 -62 20.5 -59t74.5 57q15 20 26 40zM834 500h83q-29 -58 -117 -238t-130 -262h-142l9 500h141l-8 -346z
" />
    <glyph glyph-name="ux.from" unicode="ux" horiz-adv-x="894" 
d="M265 86q-31 -39 -69.5 -63t-74 -26.5t-64 14.5t-39 59.5t0.5 110.5l64 319h134q-14 -76 -39 -204.5t-35 -185.5q-11 -61 21 -58q32 2 74 55q15 19 26 40l67 353h134q-16 -88 -37.5 -197.5t-30.5 -160.5q-11 -58 44 -56q57 2 128 55q37 28 57 57q-37 120 -88 302h139
l55 -191q60 67 130 191h72q-81 -149 -179 -265l44 -155q13 -43 55 -25q39 17 63 64q13 27 13 53h42q-1 -52 -29.5 -94t-70 -61t-85 -22t-80 21.5t-50.5 71.5l-14 49q-61 -82 -143.5 -119t-148.5 -18.5t-86 86.5z" />
    <glyph glyph-name="y_p" unicode="yp" horiz-adv-x="954" 
d="M704 467q77 54 131 32.5t83.5 -82t28.5 -134.5q0 -100 -45 -184q-24 -44 -61 -73q-48 -33 -100 -33q-33 0 -70.5 12.5t-53.5 31.5l-56 -287h-141l61 296q-55 -33 -94 -46q-30 -125 -59 -168q-17 -28 -46 -51q-26 -19 -49 -25q-27 -6 -49 -6q-20 0 -40 7q-14 6 -33 23
q-15 17 -20 32q-8 18 -6 44q2 28 13.5 50t25 35.5t38.5 26t42 18.5t49 16l11 58q-33 -33 -73 -52.5t-76 -19.5t-65 19t-39.5 61t1.5 107l65 325h139q-64 -333 -78 -396q-12 -60 26 -59q37 2 84 53q20 21 33 45l71 357h138q-75 -384 -89 -436q36 16 92 51l77 385h140z
M231 -87q10 44 11 49q-24 -10 -38.5 -17.5t-33 -19.5t-27 -25.5t-7.5 -28.5q0 -13 9 -23q11 -11 26 -11q13 0 29 17q18 19 31 59zM804 221q25 80 1.5 168t-111.5 28l-67 -325q22 -27 47 -32.5t45.5 6.5t37.5 37q30 36 47 118z" />
    <glyph glyph-name="y_x" unicode="yx" horiz-adv-x="895" 
d="M945 171h43q-1 -65 -44.5 -112.5t-98 -61.5t-106.5 8t-69 81q-7 20 -19 62q-154 -105 -254 -148q-34 -131 -60 -170q-22 -33 -46 -51q-29 -20 -49 -25q-20 -6 -48 -6q-22 0 -39 7q-18 7 -34 23q-14 14 -21 33q-7 18 -5 42q2 28 14 50t24.5 35.5t39 27.5t40.5 19t47 17
l9 61q-32 -33 -71.5 -52t-75 -19t-64 19t-38.5 61t2 107l64 321h138q-16 -85 -42.5 -218.5t-34.5 -175.5q-12 -59 26 -57q37 2 82 52q20 21 32 44l73 355h136l-83 -437q63 32 122 75.5t95 82.5l-81 279h26h116l54 -190q57 63 130 190h73q-77 -142 -179 -267l43 -154
q12 -43 55 -26q40 16 64 63q14 28 14 55zM240 -90q6 24 9 39q-6 -3 -20 -9t-21.5 -9t-19 -9t-18 -11.5t-13 -12t-9 -14.5t-2.5 -17q2 -13 9 -21q9 -10 26 -10q11 0 31 15q16 18 28 59z" />
    <glyph glyph-name=".notdef" horiz-adv-x="215" 
 />
    <glyph glyph-name=".null" horiz-adv-x="0" 
 />
    <glyph glyph-name="nonmarkingreturn" horiz-adv-x="333" 
 />
    <glyph glyph-name="space" unicode=" " horiz-adv-x="215" 
 />
    <glyph glyph-name="exclam" unicode="!" horiz-adv-x="321" 
d="M201 671l144 31l-127 -493h-107zM139 161q31 0 56 -23q21 -25 20 -57t-26 -57q-24 -24 -57 -24t-57 24q-22 23 -20 57t26 57q28 23 58 23z" />
    <glyph glyph-name="quotedbl" unicode="&#x22;" horiz-adv-x="363" 
d="M97 751l108 1l-86 -192h-81zM255 751l109 1l-88 -192h-79z" />
    <glyph glyph-name="numbersign" unicode="#" horiz-adv-x="566" 
d="M453 327l-23 -113h121l-52 -86h-86l-32 -158h-59l28 158h-120l-32 -158h-58l26 158h-139l52 86h102l19 113h-130l53 86h92l46 271l86 32l-61 -303h112l47 271l85 32l-60 -303h125l-52 -86h-90zM247 214h117l20 113h-115z" />
    <glyph glyph-name="dollar" unicode="$" horiz-adv-x="400" 
d="M374 416l-77 47q9 44 1 65.5t-29 23.5l-28 -152q1 -1 6 -2.5t6 -3.5q6 -5 29 -22t33 -27q28 -28 34 -59q15 -81 -36 -133t-128 -59l-21 -121h-28l19 121q-48 5 -81.5 28.5t-39.5 66.5q-5 37 11.5 73.5t50.5 54.5l56 -62q-34 -14 -50 -36t-9 -42q4 -16 24 -24.5t43 -5.5
l25 172q-5 6 -15.5 15.5t-14.5 13.5q-38 26 -53 62q-25 43 -13 91.5t59 75.5q37 18 81 21l12 91l59 30l-25 -123q46 -9 72.5 -37.5t30.5 -64.5t-4 -78zM204 437l15 103q-36 -26 -30 -62q3 -26 15 -41zM248 218q10 37 -25 74l-26 -133q36 17 51 59z" />
    <glyph glyph-name="percent" unicode="%" horiz-adv-x="596" 
d="M305 580q-4 -126 -85 -181q-61 -42 -123 -21q-59 20 -68 82q-1 11 -1 23q3 103 60.5 160t121 50.5t85.5 -63.5q10 -23 10 -50zM107 530q-9 -78 25 -106q28 -22 57 11q26 31 37 95q11 66 -20 104q-27 33 -56 7q-30 -28 -43 -111zM465 753h71l-386 -754h-72zM565 209
q-4 -126 -85 -181q-61 -42 -123 -21q-59 20 -68 82q-1 11 -1 23q3 103 60.5 160t121 50.5t85.5 -63.5q10 -23 10 -50zM367 159q-9 -78 25 -106q28 -22 57 11q26 30 37 95q11 66 -20 104q-27 33 -56 7q-30 -27 -43 -111z" />
    <glyph glyph-name="ampersand" unicode="&#x26;" horiz-adv-x="666" 
d="M689 426q-19 -111 -23 -127q-120 -41 -137 -46q-13 -49 -40 -93q-28 -53 -74 -93q-43 -40 -98 -63q-56 -22 -123 -22q-56 0 -93 14q-34 15 -57 38q-22 23 -33 57q-11 35 -11 67q0 40 12 80q14 43 37 78q54 78 141 101q-32 23 -47 55t-15 65q0 39 16 77q20 41 46 69
q27 30 69 50q43 19 88 19q59 0 97.5 -30.5t51.5 -75.5t8.5 -95.5t-25.5 -92.5q-79 51 -101 68q51 70 22 124q-21 38 -63 36q-50 -2 -77 -65q-4 -10 -7 -21q-8 -27 -8 -50q0 -22 6 -43q4 -17 10 -28.5t15 -18t16.5 -10t22 -4t24 0t29 2.5t31.5 3l-18 -69q-108 -5 -168.5 -57
t-60.5 -154q0 -76 63 -99q65 -22 143 24q81 49 120 146q-88 -19 -174 -20q8 37 17 93q81 4 187 36.5t181 73.5z" />
    <glyph glyph-name="quotesingle" unicode="'" horiz-adv-x="169" 
d="M223 751l-86 -190h-79l58 190h107z" />
    <glyph glyph-name="parenleft" unicode="(" horiz-adv-x="281" 
d="M353 711q-86 -44 -151.5 -165.5t-92.5 -261.5t-15.5 -282t66.5 -224l-33 -29q-71 78 -102.5 191.5t-20 233t52.5 233.5t116 206t168 138z" />
    <glyph glyph-name="parenright" unicode=")" horiz-adv-x="281" 
d="M-118 -207q86 43 151 164t92 260.5t16 281t-66 223.5l32 29q71 -78 102 -191t20 -232t-51.5 -233t-115 -205.5t-167.5 -136.5z" />
    <glyph glyph-name="asterisk" unicode="*" horiz-adv-x="393" 
d="M276 754v-135l78 45l61 -34l-111 -64l111 -63l-61 -34l-78 44v-101l-65 -34v135l-79 -45l-60 35l110 63l-110 64l62 33l77 -44v101z" />
    <glyph glyph-name="plus" unicode="+" horiz-adv-x="477" 
d="M296 317h133l-21 -114h-137l-25 -124h-85l27 124h-137l22 114h137l26 124h85z" />
    <glyph glyph-name="comma" unicode="," horiz-adv-x="248" 
d="M172 162q28 -10 39.5 -41t4 -69t-27 -74.5t-56 -62t-79.5 -27.5l-8 38q38 1 56.5 18.5t33.5 55.5q-41 5 -62.5 39.5t-8.5 73.5q13 32 44.5 46.5t63.5 2.5z" />
    <glyph glyph-name="hyphen" unicode="-" horiz-adv-x="321" 
d="M260 222h-220l18 79h214z" />
    <glyph glyph-name="period" unicode="." horiz-adv-x="272" 
d="M39 74q0 32 23 58q25 23 57 23t58 -23q23 -26 23 -58t-23 -57q-26 -23 -58 -23t-57 23q-23 25 -23 57z" />
    <glyph glyph-name="slash" unicode="/" horiz-adv-x="217" 
d="M42 -250h-78l214 1002h77z" />
    <glyph glyph-name="zero" unicode="0" horiz-adv-x="574" 
d="M96 603q64 109 171 140q106 31 191 -31q104 -76 108 -250q3 -94 -26 -207q-17 -67 -50 -121q-66 -107 -178 -137q-109 -30 -195 30q-105 73 -108 239q-1 97 35 216q18 60 52 121zM452 362q32 227 -44 282q-51 37 -125 -18q-77 -58 -117 -168q-15 -42 -21 -84
q-25 -185 44 -255q48 -49 116 -17q75 36 117 144q22 53 30 116z" />
    <glyph glyph-name="one" unicode="1" horiz-adv-x="306" 
d="M74 672q211 64 259 80l-153 -752h-141l123 610h-100z" />
    <glyph glyph-name="two" unicode="2" horiz-adv-x="513" 
d="M506 615q-2 -47 -16.5 -93.5t-33 -84t-52.5 -79.5t-60 -70.5t-71 -67t-70.5 -59t-71.5 -56.5q63 20 174.5 18t195.5 -28l-148 -99q-128 24 -177.5 24.5t-166.5 -24.5l12 86q28 36 40 47q298 278 322 475q9 66 -39 80q-40 11 -80 -20q-49 -39 -33 -96q2 -4 3 -8
q-16 -9 -64 -39t-65 -40q6 74 34 134.5t85.5 100.5t135.5 36q41 -1 80 -21q31 -18 49 -49q20 -37 17 -67z" />
    <glyph glyph-name="three" unicode="3" horiz-adv-x="506" 
d="M369 406q106 -28 121 -118q14 -83 -50 -171q-66 -91 -166 -115q-86 -21 -168 20q-80 39 -90 126q-5 38 3 76l113 -39q-5 -13 -7 -18q-10 -30 -8 -44q1 -44 53 -46q94 -6 152 63t23 141t-166 72l4 67q79 25 123.5 74.5t46.5 111.5q1 65 -47 78q-42 12 -79 -19
q-45 -38 -23 -95q2 -5 4 -9q-15 -9 -63 -40t-59 -38q-1 54 11 102t38 87t71.5 61t105.5 19q40 -1 83 -21q33 -18 54 -49q24 -37 25 -67q3 -41 -13 -80t-35.5 -64.5t-46.5 -54.5z" />
    <glyph glyph-name="four" unicode="4" horiz-adv-x="545" 
d="M370 0h-140q39 198 51 264h-255h-3q52 109 73.5 187.5t42.5 209.5l136 91q-7 -88 -46.5 -210.5t-83.5 -190.5h155q19 104 70 350l154 51l-83 -401h80l-47 -87h-49z" />
    <glyph glyph-name="five" unicode="5" horiz-adv-x="527" 
d="M102 13q-78 38 -89 128q-3 40 6 78l111 -40q-4 -9 -4 -10t-3 -10q-9 -24 -9 -42q0 -24 14.5 -36.5t38.5 -12.5q37 -1 84 18q52 29 82 79q29 50 29 98t-23.5 80.5t-68.5 46.5t-100 1l-8 -2q-42 -10 -89 -43l84 400q119 -11 165 -9.5t148 15.5q31 -64 54 -107
q-81 -5 -169.5 -2t-129.5 11l-39 -192q58 25 107.5 23t89.5 -21t67 -55t40 -77.5t9.5 -89t-25.5 -89.5q-23 -46 -62.5 -85t-87.5 -61q-45 -23 -106.5 -22.5t-115.5 28.5z" />
    <glyph glyph-name="six" unicode="6" horiz-adv-x="537" 
d="M508 494q-66 47 -124 81q20 55 11.5 83.5t-45 18.5t-79.5 -58q-24 -23 -45 -72q-29 -66 -43 -148q60 42 128.5 50t119.5 -21t70 -97t-21 -178q-18 -49 -55 -88q-34 -37 -84 -60q-46 -20 -111 -20q-58 0 -98 15q-36 14 -64 47q-24 31 -34 73q-11 47 -11 99q0 104 26 202
q25 95 73 174q30 50 70 85.5t80.5 52t81.5 19t73 -14.5t56 -48t30 -81t-5 -114zM370 181q20 79 3.5 120.5t-52.5 53t-77.5 0.5t-72.5 -37q-4 -45 -5 -64q-1 -8 -1 -26v-28q-1 -71 24.5 -106.5t60 -31.5t69.5 36t51 83z" />
    <glyph glyph-name="seven" unicode="7" horiz-adv-x="484" 
d="M392 661q-58 -11 -164 -18.5t-169 -2.5q10 20 63 108q199 -30 432 4q-69 -76 -203 -332t-169 -377l-157 -45q12 37 42 98.5t76.5 143t84 145.5t92 154.5t72.5 121.5z" />
    <glyph glyph-name="eight" unicode="8" horiz-adv-x="540" 
d="M407 429q64 -50 91.5 -112.5t17.5 -119.5t-42.5 -106t-90 -78t-123.5 -29q-60 0 -110.5 25t-81 64.5t-40 89t4 96.5t60 89t119.5 65q-54 40 -81.5 88t-25 91.5t24.5 80t67.5 58t104.5 21.5q52 0 94.5 -18t68 -46t36.5 -64t5.5 -71.5t-31 -68.5t-68.5 -55zM261 69
q34 -2 60.5 17.5t37 54t7.5 74t-28.5 82.5t-69.5 76q-43 -13 -69.5 -48t-31 -77t3 -82t32.5 -67.5t58 -29.5zM355 459q27 17 36.5 55.5t2.5 77.5t-30 70t-56 33q-49 2 -74 -28q-14 -17 -17 -35t8 -38.5t21 -35.5t35.5 -37.5t36 -31.5t37.5 -30z" />
    <glyph glyph-name="nine" unicode="9" horiz-adv-x="535" 
d="M516 516q1 -105 -21 -202q-23 -96 -69 -174q-34 -57 -80.5 -95.5t-93.5 -52t-91.5 -4.5t-76.5 38.5t-46 85.5t-2 129q12 -8 40.5 -26.5t52 -33t35.5 -22.5q-19 -54 -10 -82.5t45.5 -18.5t79.5 58q18 22 43 72q26 63 39 147q-81 -56 -170.5 -49.5t-133.5 78t0 218.5
q18 49 52 88q36 39 84 59q47 22 109 22q60 0 99 -16q39 -14 64 -46q26 -28 37 -74q13 -44 14 -99zM169 554q-19 -79 -1.5 -120.5t53.5 -53t77.5 -1t71.5 37.5q2 12 4 64q0 4 0.5 13t1.5 13q0 18 -1 27q-1 72 -28 107t-61 31.5t-68 -35.5t-49 -83z" />
    <glyph glyph-name="colon" unicode=":" horiz-adv-x="297" 
d="M239 435q24 -23 24 -57t-24 -56q-22 -23 -56 -23q-35 0 -57 23q-23 22 -23 56q0 35 23 57q22 24 57 24q33 0 56 -24zM132 217q34 0 56 -24q24 -21 24 -57q0 -35 -24 -56q-24 -24 -56 -24t-56 24q-24 22 -24 56t24 57q22 24 56 24z" />
    <glyph glyph-name="semicolon" unicode=";" horiz-adv-x="310" 
d="M242 386q24 -24 24 -58q0 -33 -24 -57q-23 -23 -57 -23q-35 0 -58 23q-23 25 -23 57q0 33 23 58q24 24 58 24q33 0 57 -24zM171 160q28 -10 39.5 -41t3.5 -68.5t-27 -74t-55.5 -62t-80.5 -27.5l-8 38q38 2 56.5 19.5t33.5 55.5q-9 0 -21 5q-32 12 -47 43.5t-2 63.5
q12 32 43.5 46t64.5 2z" />
    <glyph glyph-name="less" unicode="&#x3c;" horiz-adv-x="392" 
d="M370 437l-10 -57l-250 -124l201 -99l-12 -59l-256 141l10 43z" />
    <glyph glyph-name="equal" unicode="=" horiz-adv-x="523" 
d="M432 97h-408l27 110h407zM482 325h-409l27 109h407z" />
    <glyph glyph-name="greater" unicode="&#x3e;" horiz-adv-x="421" 
d="M58 75l10 57l250 124l-201 99l12 59l256 -141l-10 -43z" />
    <glyph glyph-name="question" unicode="?" horiz-adv-x="425" 
d="M153 228q4 20 9.5 39t15 37.5t16 31t20 31t19 25.5t21.5 26.5t18 22.5q3 4 14.5 17.5t15.5 19.5t14 19.5t13 21t9 20.5t5.5 22t-2 20.5t-8 22.5t-17.5 21q-19 22 -55 22q-48 0 -76.5 -43.5t-5.5 -88.5q-80 -48 -113 -71q-16 109 42.5 190t168.5 79q56 -1 95.5 -22
t59.5 -52q28 -58 14 -113t-60 -99q-13 -13 -40 -39.5t-35 -35t-25 -27t-23.5 -30t-15.5 -29.5t-16 -38h-78zM256 82q0 -33 -24 -57q-22 -25 -57 -25q-34 0 -58 25q-23 23 -23 57q0 35 23 57q26 23 58 23t57 -23q24 -23 24 -57z" />
    <glyph glyph-name="at" unicode="@" horiz-adv-x="586" 
d="M328 208q-24 -40 -57 -50.5t-55 14.5t-16 77q6 68 40 117.5t91 52.5h93l-5 -21q-6 -29 -15 -67.5t-14.5 -65t-7.5 -51.5q-3 -30 12 -27q22 4 52 54q51 85 36 158q-14 63 -78 92q-56 23 -123 8q-67 -13 -114.5 -80t-50.5 -162q-2 -67 37 -122.5t99.5 -78t117.5 -0.5
l87 -62q-56 -31 -117 -36t-114.5 16t-96.5 58.5t-67 95.5t-21 124q5 134 79.5 218.5t172.5 93.5q96 9 175 -40q100 -65 74 -184q-18 -85 -83 -147q-59 -56 -99 -38q-25 12 -32 53zM332 242q0 4 2 10l25 118q-18 41 -51 15q-36 -29 -49 -97q-17 -76 4 -95.5t69 49.5z" />
    <glyph glyph-name="A" unicode="A" horiz-adv-x="642" 
d="M177 658q34 27 81 46t87.5 28.5t106.5 14t102.5 5t112.5 0.5h35q-23 -117 -74 -368.5t-76 -383.5h-140l45 205h-229l-172 -204h-96q555 653 572 673q-4 0 -48.5 -2t-66.5 -4t-61 -7t-68 -14.5t-52 -23.5q-39 -25 -52.5 -77.5t8.5 -113.5l-135 -62q12 203 120 288z
M476 290q20 94 62 280l-237 -280h175z" />
    <glyph glyph-name="B" unicode="B" horiz-adv-x="712" 
d="M670 331q23 -43 23 -95t-23 -100q-21 -45 -55.5 -74t-82.5 -42t-90.5 -16.5t-102.5 -3.5h-104h-61l136 680q-80 -31 -119.5 -105.5t-1.5 -141.5l-135 -62q-8 59 3 113t38 94.5t65 74.5t83.5 54.5t93 33t94.5 11.5t87 -11t71.5 -34.5t47.5 -58.5q28 -60 -1.5 -123
t-90.5 -98q86 -22 125 -96zM450 699l-51 -257q65 8 103.5 47.5t37.5 106.5q0 45 -25 71t-65 32zM325 68q126 -2 190 80q49 64 32 136q-16 69 -85 91q-34 10 -76 7z" />
    <glyph glyph-name="C" unicode="C" horiz-adv-x="569" 
d="M644 168h48q-35 -75 -110.5 -122t-160 -58t-169.5 10t-139 73q-63 59 -72.5 164.5t23.5 208t90 173.5q71 86 162 116q112 41 199 -4q78 -40 88 -126q10 -88 -55 -197l-81 130q2 4 9 14t10 15.5t7.5 14.5t6 17t1.5 16q-1 23 -15.5 35.5t-37.5 12.5q-51 0 -116 -56
q-86 -79 -124.5 -214t13.5 -233q38 -62 121.5 -89t171.5 -2t130 101z" />
    <glyph glyph-name="D" unicode="D" horiz-adv-x="798" 
d="M206 652q58 49 135.5 75.5t155 23.5t144 -29t108.5 -87t44 -147q2 -50 -7 -103q-5 -40 -26 -109q-24 -61 -49 -104q-27 -47 -69 -89q-40 -37 -94 -60q-55 -23 -119 -23h-196l134 673q-65 -23 -108 -63q-37 -33 -46 -85.5t16 -93.5l-135 -63q-24 167 112 284zM640 371
q18 82 17 157q-2 77 -42 117.5t-104 47.5l-123 -618q47 -5 72 5q37 14 69.5 46t64.5 103q26 53 46 142z" />
    <glyph glyph-name="E" unicode="E" horiz-adv-x="648" 
d="M733 752l-29 -89h-211l-38 -197h147l-26 -88h-138l-60 -290h223l-25 -88h-353l135 666q-132 -12 -173 -49q-29 -25 -28.5 -76.5t32.5 -105.5l-135 -63q-27 209 87 300q80 59 228 75q52 4 107 4q28 0 120.5 0.5t136.5 0.5z" />
    <glyph glyph-name="F" unicode="F" horiz-adv-x="647" 
d="M712 662h-210l-40 -197h148l-28 -87h-138l-75 -378h-137l134 666q-129 -13 -180 -56q-26 -22 -23 -73.5t33 -103.5l-137 -61q-24 201 86 295q78 62 233 79q47 5 105 5q28 0 121 0.5t137 0.5z" />
    <glyph glyph-name="G" unicode="G" horiz-adv-x="627" 
d="M442 180q-41 -22 -90 -33q-134 -28 -218 56q-42 46 -57 119.5t-5 143t37 120.5q44 83 133 127q91 49 195 37q99 -11 146 -76q50 -77 -12 -188l-108 75q9 13 15.5 27.5t12 32.5t3 34t-14.5 26q-18 15 -48.5 15t-62.5 -16q-47 -24 -79 -63q-49 -60 -67 -157.5t7 -171.5
q26 -65 82 -79q65 -12 144 45q1 3 21 104q88 14 141 26l-62 -307q-8 -45 -13.5 -68t-18.5 -55.5t-33 -60.5q-21 -30 -55 -56q-65 -47 -145 -44q-62 2 -111 35q-54 32 -80 95q17 14 52.5 43t47.5 38q6 -37 31 -75q26 -36 57 -46q54 -19 90 40q16 25 23 55q20 61 42 202z" />
    <glyph glyph-name="H" unicode="H" horiz-adv-x="807" 
d="M719 752h136l-153 -752h-137l78 379h-194l-76 -379h-139l138 668q-131 -13 -181 -55q-26 -22 -23 -74.5t33 -104.5l-135 -62q-24 193 73 282q59 57 155 78t230 22l-58 -288h195z" />
    <glyph glyph-name="I" unicode="I" horiz-adv-x="477" 
d="M529 752l-149 -752h-136l133 666q-132 -12 -178 -52q-26 -23 -23 -75t33 -106l-137 -61q-25 204 81 292q60 51 153 69t223 19z" />
    <glyph glyph-name="J" unicode="J" horiz-adv-x="477" 
d="M164 668q104 86 372 84l-135 -677q-7 -40 -34 -104q-38 -86 -106 -134q-60 -41 -129 -44t-124.5 32t-76.5 99q86 64 107 79q9 -66 46 -101.5t82 -17.5t72 93q9 26 13 47l132 645q-120 -11 -172 -49q-29 -22 -28 -77t33 -109l-136 -61q-26 205 84 295z" />
    <glyph glyph-name="K" unicode="K" horiz-adv-x="794" 
d="M859 752l-344 -355l245 -397h-160l-171 275l-56 -275h-137l134 668q-131 -12 -176 -53q-27 -24 -25.5 -75.5t32.5 -105.5l-135 -62q-26 193 71 285q59 55 155.5 75.5t231.5 20.5l-56 -284l272 283h119z" />
    <glyph glyph-name="L" unicode="L" horiz-adv-x="511" 
d="M196 420l-141 -67q-23 193 63 287q58 64 161.5 88t251.5 24l-148 -751q86 -9 222 -57.5t223 -105.5l-184 -88q-71 82 -195.5 148.5t-215.5 67.5l139 696q-139 -14 -186 -54q-27 -25 -24.5 -78.5t34.5 -109.5z" />
    <glyph glyph-name="M" unicode="M" horiz-adv-x="820" 
d="M746 750l128 1l-151 -751l-139 1l104 460l-262 -460h-125l49 458l-211 -458h-95l308 666q-40 -6 -64.5 -11.5t-52.5 -18.5t-43 -32q-20 -22 -15 -74t31 -98l-136 -62q-20 196 72 283q63 60 183 85q64 13 198 13l-61 -491z" />
    <glyph glyph-name="N" unicode="N" horiz-adv-x="737" 
d="M463 752l111 -510l103 510h97l-151 -752h-142l-105 513l-102 -513h-97l134 666q-6 -1 -20 -3q-76 -15 -106 -40q-27 -24 -18 -78t48 -111l-135 -63q-49 205 46 298q54 50 159 71q63 12 178 12z" />
    <glyph glyph-name="O" unicode="O" horiz-adv-x="731" 
d="M742 481q0 -59 -8 -104q-8 -56 -26 -110q-15 -50 -45 -106q-33 -56 -68 -91q-38 -37 -92 -62q-50 -23 -117 -23q-45 0 -77 11q-34 9 -60 35q-25 23 -38 60q-14 40 -14 92q-2 44 4 90q21 162 137 344l158 18q-131 -189 -153 -336q-7 -49 -6.5 -91t11 -70t25.5 -45.5
t36.5 -18t43.5 12.5t46.5 47t46.5 85q29 62 45 143q16 82 15 162q-2 79 -46 122t-104.5 46.5t-125 -17t-108.5 -59.5q-40 -37 -47.5 -91.5t21.5 -98.5l-139 -64q-28 191 127 306q74 55 169.5 73t180.5 -1t145 -86.5t63 -172.5z" />
    <glyph glyph-name="P" unicode="P" horiz-adv-x="606" 
d="M646 649q33 -84 3.5 -161t-106 -134t-167.5 -70l-57 -284h-139l139 680q-67 -27 -106 -67q-32 -31 -36.5 -84.5t21.5 -95.5l-136 -63q-22 172 105 282q75 64 175.5 88.5t186.5 0.5t117 -92zM388 347q65 17 113.5 95.5t47.5 154.5q-3 88 -91 102z" />
    <glyph glyph-name="Q" unicode="Q" horiz-adv-x="732" 
d="M742 484q0 -50 -6 -105q-10 -63 -25 -112q-18 -54 -49 -105q-29 -54 -62 -85q16 -18 34 -41t40 -51t35 -44q-6 -3 -129 -79q-50 111 -71 150q-4 -1 -8 -3q-53 -24 -116 -24q-47 0 -76 12q-32 9 -58 35q-26 23 -40 60q-16 42 -16 92q-2 45 4 88q13 94 47 175t90 170
l160 18q-127 -182 -152 -334q-24 -133 19 -197q34 -49 87 -19q6 3 11 7q-45 67 -88 60l18 31q60 18 122 -25q19 25 34 61q25 54 44 144q16 78 14 161q-3 105 -74 144.5t-161 18.5q-66 -15 -118 -57t-69.5 -93.5t10.5 -104.5l-139 -66q-20 150 68 248t229 129q56 9 111 8
t105 -20.5t88.5 -50.5t62 -82t24.5 -114z" />
    <glyph glyph-name="R" unicode="R" horiz-adv-x="676" 
d="M644 647q26 -60 -2.5 -121t-87.5 -98q21 -13 36.5 -32t23 -44t12.5 -46.5t3 -55t-3 -53.5t-9 -57t-11 -51t-12 -49.5t-10 -39.5h-133q2 12 11 46t15 63t13.5 68.5t8.5 71t-2 61t-16 48.5t-35 25q-26 3 -60 -4l-74 -379h-140l140 679q-54 -24 -90 -58t-50 -83t20 -105
l-135 -63q-23 174 114 287q76 62 175 85t183 -2t115 -93zM450 701l-51 -262q66 6 106 46t40 110q-3 90 -95 106z" />
    <glyph glyph-name="S" unicode="S" horiz-adv-x="545" 
d="M565 492l-135 60q48 122 -38 134q-46 3 -89 -26q-22 -15 -36 -43.5t-11 -51.5q3 -22 7 -31t18 -27q25 -32 82 -67q81 -55 100 -74q48 -40 59 -92q30 -145 -91 -228.5t-261.5 -59t-158.5 140.5q-9 58 17 113.5t80 82.5l92 -94q-56 -21 -81 -54t-14 -64q12 -36 64 -45.5
t104 14.5q62 26 84 94q21 59 -61 125q-14 10 -45 32t-50 36q-59 48 -86 98q-39 65 -19.5 139t94.5 112q86 43 184 34q69 -8 119 -41t70 -89q18 -54 2 -128z" />
    <glyph glyph-name="T" unicode="T" horiz-adv-x="717" 
d="M211 433l-136 -63q-9 67 -3 119t16 92.5t32 69.5t45 49t56 30.5t64.5 15.5t70 3.5t73.5 -6.5t74 -14q65 -14 98.5 -20t82 -8.5t80.5 10.5t55 41h54q-58 -73 -114 -105t-109.5 -29t-119.5 17l-132 -635h-138l139 657q-66 9 -117 3t-79 -34q-24 -26 -21 -78t29 -115z" />
    <glyph glyph-name="U" unicode="U" horiz-adv-x="828" 
d="M736 752h137l-151 -752h-138l22 93q-42 -65 -117.5 -86t-144.5 22q-44 25 -59 80q-12 51 -3 136q10 77 37 197l51 226q-124 -13 -170 -48q-30 -24 -29.5 -77t32.5 -110l-135 -61q-25 200 85 294q109 87 372 87l-18 -78l-48 -230q-4 -17 -14.5 -67.5t-14.5 -72.5
q-9 -55 -12 -97q-5 -45 0 -61q18 -55 90 -21q62 30 107 93q11 14 18 28z" />
    <glyph glyph-name="V" unicode="V" horiz-adv-x="702" 
d="M509 752l-1 -513l202 513h94l-295 -752h-139v668q-50 -4 -82.5 -8.5t-69 -19.5t-50.5 -39q-30 -72 40 -168l-139 -63q-32 191 49 280q55 60 152.5 81t238.5 21z" />
    <glyph glyph-name="W" unicode="W" horiz-adv-x="1058" 
d="M536 755l2 -517l201 513l129 1l9 -511l197 511h93l-292 -752h-137l1 512l-201 -512h-137l1 671q-114 -10 -151 -25q-26 -12 -37 -30q-17 -37 -9 -89t39 -95l-140 -62q-34 214 62 299q102 86 370 86z" />
    <glyph glyph-name="X" unicode="X" horiz-adv-x="773" 
d="M754 752h93l-232 -314l94 -438h-141l-62 292l-217 -292h-95q128 170 291 392l-59 279q-54 -4 -84 -7.5t-71.5 -16.5t-65.5 -33q-30 -24 -33 -75.5t23 -105.5l-135 -63q-10 197 94 288q64 55 162 74.5t233 19.5l45 -215q108 146 160 215z" />
    <glyph glyph-name="Y" unicode="Y" horiz-adv-x="840" 
d="M225 433l-135 -61q-19 103 -3 175t61 116q60 53 156.5 71t227.5 18l-57 -253q-13 -63 -25.5 -145t-5.5 -99q11 -26 40.5 -27t62 16t62 43t43.5 50l88 415h136q-113 -565 -142 -690t-59 -167q-25 -34 -56 -57q-91 -64 -191.5 -39t-144.5 126q18 12 100 78q32 -100 88 -120
q76 -19 114 96q14 47 47 232q-38 -45 -104.5 -64.5t-128.5 0t-83 77.5q-9 31 -9.5 68.5t3 61t13 73t13.5 70.5l41 173q-129 -9 -178 -52q-25 -24 -17 -78t43 -107z" />
    <glyph glyph-name="Z" unicode="Z" horiz-adv-x="617" 
d="M201 752h445l-425 -647q85 30 199 31t190 -32l-90 -103q-55 24 -150 29t-185.5 -4t-186.5 -27q87 124 240 359.5t208 317.5h-291z" />
    <glyph glyph-name="bracketleft" unicode="[" horiz-adv-x="298" 
d="M161 752h204l-12 -63h-89l-176 -877h89l-12 -62h-204z" />
    <glyph glyph-name="backslash" unicode="\" horiz-adv-x="526" 
d="M185 752l212 -1002h-88l-212 1002h88z" />
    <glyph glyph-name="bracketright" unicode="]" horiz-adv-x="297" 
d="M113 -250h-204l12 63h89l176 877h-89l12 62h204z" />
    <glyph glyph-name="asciicircum" unicode="^" horiz-adv-x="421" 
d="M283 752l86 -175l-61 -6l-59 82l-108 -86l-90 -6l179 187z" />
    <glyph glyph-name="underscore" unicode="_" horiz-adv-x="443" 
d="M355 81l-27 -81h-350l29 81h348z" />
    <glyph glyph-name="grave" unicode="`" horiz-adv-x="201" 
d="M20 752l108 -1l58 -190h-79z" />
    <glyph glyph-name="a" unicode="a" horiz-adv-x="553" 
d="M605 171h39q-36 -97 -124 -148q-79 -46 -139 -22q-54 22 -59 93q-26 -38 -61.5 -63t-71.5 -33.5t-71.5 -1.5t-61.5 28t-40 59.5t-10 88.5q5 63 23.5 118.5t50 103t82.5 76t116 30.5h253l-8 -38q-16 -78 -40 -189.5t-35 -167.5q-11 -57 28 -54.5t86 52.5q31 33 43 68z
M325 160l48 248q-37 68 -98 35q-58 -31 -95 -126q-13 -33 -21 -68q-16 -71 -9.5 -116.5t26.5 -65.5t59.5 3t89.5 90z" />
    <glyph glyph-name="b" unicode="b" horiz-adv-x="482" 
d="M465 398q22 -83 -11 -183q-17 -57 -39.5 -97.5t-46 -63t-57.5 -35t-63.5 -16t-73.5 -3.5h-105h-58l141 700h132l-42 -213q39 18 76 18q61 0 101 -33q27 -22 46 -74zM351 276q8 77 -13 119q-14 31 -40.5 41.5t-65.5 -6.5l-70 -346q35 -28 64 -24t50.5 24.5t37.5 56
t25 69.5t12 66z" />
    <glyph glyph-name="c" unicode="c" horiz-adv-x="363" 
d="M406 172h37q-99 -172 -258 -178q-52 -2 -90 20t-55 59.5t-22 86t7 99.5q15 78 56.5 142t105.5 90q84 35 140 -10q37 -29 45.5 -81.5t-14.5 -93.5q-2 -6 -14 -24l-46 81q16 31 17 55.5t-9 28.5q-21 14 -55 -11q-75 -54 -96 -187q-11 -75 5 -121t52 -60q86 -33 194 104z
" />
    <glyph glyph-name="d" unicode="d" horiz-adv-x="542" 
d="M602 176h39q-36 -99 -124 -152q-79 -47 -139 -21q-54 22 -59 95q-26 -39 -61.5 -64t-72 -33.5t-71.5 -1.5t-61 28t-40 59.5t-10 89.5q7 86 39.5 154t76 104.5t91.5 55t90 15t68 -25.5q3 -3 13 -15l48 236h136q-99 -503 -117 -591q-12 -59 27 -56q37 2 83 52q32 34 44 71z
M325 181l45 232q-37 67 -98 35q-57 -30 -94 -124q-14 -34 -21 -71q-10 -45 -11 -82.5t5.5 -63.5t21.5 -37.5t36 -7t50.5 30t63.5 71.5q0 7 2 17z" />
    <glyph glyph-name="e" unicode="e" horiz-adv-x="357" 
d="M409 172h36q-56 -103 -120 -141.5t-154 -36.5q-68 2 -108 43t-48 100.5t7 126.5t50 123q27 42 65 71t74 39t69.5 6.5t54.5 -21.5q37 -29 41.5 -81t-19.5 -95q-63 -116 -215 -111q1 -40 16.5 -75t45.5 -50q54 -25 110.5 6.5t94.5 95.5zM146 253q0 -2 -0.5 -6t-0.5 -5
q45 -1 78.5 17.5t50.5 47t25 58.5t6.5 53t-9.5 29q-16 12 -45 -4t-55 -57q-34 -52 -50 -133z" />
    <glyph glyph-name="f" unicode="f" horiz-adv-x="262" 
d="M263 661l-3 -17l-29 -144h81l-29 -61h-65l-139 -688h-144q37 193 139 688h-63l26 61h53q12 44 26.5 79t36 68t50 55t64.5 35.5t84.5 12t105.5 -17.5l-97 -98q-37 29 -56 34.5t-41 -7.5z" />
    <glyph glyph-name="g" unicode="g" horiz-adv-x="516" 
d="M448 505h84l-77 -377q-10 -56 -20 -98t-27 -89t-37.5 -78.5t-51 -59.5t-68 -40t-89 -11t-113.5 19l92 96q70 -53 114 -27l4 16l46 222q-40 -51 -97 -71t-105.5 -8.5t-80 58.5t-25.5 120q7 82 33.5 146.5t63.5 101.5t76.5 56.5t79.5 21.5q38 2 58 2h140zM322 164l51 253
q-37 69 -99 37q-59 -32 -98 -129q-14 -33 -22 -69q-10 -55 -11 -99.5t13 -67.5t35.5 -27.5t56 22t74.5 80.5z" />
    <glyph glyph-name="h" unicode="h" horiz-adv-x="499" 
d="M562 173h39q-40 -111 -133 -157q-76 -37 -137 -8q-62 30 -54 111q1 7 2 15q6 33 16 86.5t17 94.5t13 76q12 60 -20.5 57.5t-75.5 -54.5q-16 -20 -28 -42l-70 -351h-137l142 699h133l-53 -266q40 42 87 59.5t85 8t57 -56.5t4 -125q-24 -139 -38 -212q-11 -60 27 -58
q37 2 82 53q30 34 42 70z" />
    <glyph glyph-name="i" unicode="i" horiz-adv-x="274" 
d="M319 177h39q-37 -100 -125 -153q-81 -48 -143 -23q-72 29 -63 140q2 20 6 42l66 317h138q-18 -96 -44 -222.5t-34 -167.5q-11 -60 28 -58t86 53q33 35 46 72zM187 556q-34 0 -56 22q-21 22 -21 56q2 33 23 56q25 23 57 23t55 -23q24 -24 24 -56q0 -33 -25 -56
q-23 -22 -57 -22z" />
    <glyph glyph-name="j" unicode="j" horiz-adv-x="240" 
d="M-27 -143l128 643h142l-74 -366q-11 -58 -20.5 -100t-26.5 -90.5t-37 -80.5t-51 -60.5t-69 -40.5t-90.5 -11t-116.5 19l96 97q66 -55 116 -26zM248 690q24 -24 23 -57q0 -32 -24 -56q-27 -24 -59 -24q-31 0 -55 24q-23 23 -23 56q0 32 25 57q25 23 56 23q34 0 57 -23z
" />
    <glyph glyph-name="k" unicode="k" horiz-adv-x="441" 
d="M294 222l142 -222h-142l-111 172l-31 -172h-140l139 700h135q-13 -70 -36 -183.5t-32 -162.5q71 98 131 133q62 38 96 0q32 -36 13 -102q-26 -88 -126 -144zM222 239q94 39 142 120q32 54 19 77q-9 15 -35 0q-16 -9 -38 -31t-37.5 -41t-39 -50t-29.5 -39l-10 -48
q15 5 28 12z" />
    <glyph glyph-name="l" unicode="l" horiz-adv-x="249" 
d="M296 168h38q-35 -97 -120 -147q-77 -45 -135 -18q-69 33 -53 151q2 10 4 21l105 525h135q-18 -92 -65 -318.5t-57 -277.5q-11 -56 25 -55q36 2 81 51q30 33 42 68z" />
    <glyph glyph-name="m" unicode="m" horiz-adv-x="733" 
d="M792 170h39q-39 -104 -128 -152q-78 -41 -137 -14q-65 31 -52 130l2 14q7 40 22.5 121t23.5 123q12 59 -17 55t-69 -58q-22 -30 -34 -60q-2 -4 -3 -8q-3 -16 -29 -162.5t-28 -158.5h-132q13 70 35.5 200.5t33.5 188.5q10 58 -22 55.5t-73 -52.5q-17 -22 -28 -44l-2 -4
l-69 -344h-138l100 500h138l-13 -68q40 48 93 66t94.5 -6t45.5 -89q31 42 69.5 69t73 31.5t62 -11t36.5 -59t-4 -112.5l-16 -89q-3 -15 -9.5 -48t-14.5 -79q-8 -39 26 -39q40 -1 84 42q28 29 40 62z" />
    <glyph glyph-name="n" unicode="n" horiz-adv-x="544" 
d="M605 175h39q-42 -109 -129 -158q-77 -42 -134 -11q-68 38 -55 155q1 10 3 20q14 70 40 210q11 58 -25 56q-37 -1 -84 -52q-28 -30 -41 -63l-63 -332h-142l101 500h137l-15 -75q32 36 72 57.5t77 22t66 -16.5t41 -61t0 -109q-31 -161 -40 -210q-11 -61 26 -59t82 53
q32 36 44 73z" />
    <glyph glyph-name="o" unicode="o" 
d="M573 392l3 -34q-62 -56 -119 -82q-8 -66 -34.5 -120t-61.5 -86.5t-77 -54t-82.5 -21.5t-77.5 11q-67 24 -96 81.5t-21 130.5q9 75 51.5 143.5t110.5 107.5q36 21 76.5 30t80 5.5t73 -27t50.5 -65.5q13 -31 13 -70q58 14 111 51zM337 253v4q-47 9 -96 46l52 71
q19 -17 43 -27q-8 39 -29.5 66.5t-49.5 30.5t-57 -36q-27 -38 -44.5 -108t-10 -140t48.5 -93q18 -13 39 -6t40.5 26.5t37 63t26.5 102.5z" />
    <glyph glyph-name="p" unicode="p" horiz-adv-x="473" 
d="M238 470q78 51 133 29.5t84 -81t28 -132.5q-2 -106 -47 -186q-24 -46 -60 -71q-43 -35 -101 -35q-32 0 -70 13t-54 31l-56 -288h-141l149 750h141zM339 224q22 117 -2 180q-26 72 -108 17l-66 -326q21 -28 46 -33.5t46 6.5t38 36q32 45 46 120z" />
    <glyph glyph-name="q" unicode="q" horiz-adv-x="479" 
d="M356 500h136l-152 -750h-138l55 266q-47 -19 -95 -20.5t-89 27t-54 79.5q-23 78 9 187q23 74 72 132.5t114.5 79t134.5 -33.5zM270 72l67 349q-34 30 -62 26t-49 -24.5t-36 -57t-23.5 -71t-12.5 -67.5q-11 -70 11 -120q13 -32 38.5 -42.5t66.5 7.5z" />
    <glyph glyph-name="r" unicode="r" horiz-adv-x="438" 
d="M221 391q107 178 279 76l-93 -77q-99 72 -206 -101l-56 -289h-141l101 500h137z" />
    <glyph glyph-name="s" unicode="s" horiz-adv-x="446" 
d="M467 331l-113 40q7 13 10.5 26t3.5 28t-10.5 24.5t-31.5 11.5q-39 7 -70 -17q-22 -9 -34.5 -27.5t-9.5 -34.5q3 -22 19 -39q28 -24 72 -48q39 -20 81 -48q35 -29 47 -62q24 -97 -75.5 -152.5t-215.5 -38.5t-130 95q-6 37 16 73.5t66 55.5l74 -63q-45 -14 -66 -36t-11 -43
q10 -25 52 -31.5t84 9.5q53 23 71 64q16 36 -49 84q-11 6 -29 15.5t-29 16t-22 15.5q-47 27 -70 66q-34 42 -18 91.5t79 74.5q67 30 151 22q120 -6 156 -85q15 -36 2 -87z" />
    <glyph glyph-name="t" unicode="t" horiz-adv-x="267" 
d="M312 175h40q-37 -100 -126 -152q-79 -47 -139 -22q-71 29 -60 142q2 17 6 36l53 260h-60l25 61h48l27 130l142 28l-31 -158h81l-29 -61h-63l-67 -332q-11 -58 25 -56q37 2 84 52q31 35 44 72z" />
    <glyph glyph-name="u" unicode="u" horiz-adv-x="476" 
d="M531 173h39q-35 -100 -119 -152q-74 -45 -129 -19q-43 21 -52 81q-31 -39 -70.5 -62.5t-75 -26.5t-64 14t-39 60t0.5 111l64 321h136q-13 -68 -39 -200t-37 -193q-11 -60 21 -58q32 3 74 56q16 20 27 41q1 2 67 354h134q-14 -74 -38 -202.5t-35 -190.5
q-10 -58 22.5 -55.5t73.5 52.5q27 33 39 69z" />
    <glyph glyph-name="v" unicode="v" horiz-adv-x="354" 
d="M329 500h83q-24 -48 -108.5 -232t-127.5 -268h-139l1 500h138l-2 -342z" />
    <glyph glyph-name="w" unicode="w" horiz-adv-x="654" 
d="M632 500h80l-244 -500h-131l-5 342l-163 -342h-134l-3 500h131l3 -342l166 342h128l8 -341z" />
    <glyph glyph-name="x" unicode="x" horiz-adv-x="420" 
d="M471 173h42q-1 -53 -30 -95t-70.5 -61.5t-85.5 -22.5t-81 21.5t-50 71.5l-17 61l-131 -148h-68q87 100 182 206l-85 294h142l45 -161q15 17 44.5 51t54 61.5t43.5 48.5h68l-194 -219l58 -201q12 -42 55 -25q40 16 64 63q14 28 14 55z" />
    <glyph glyph-name="y" unicode="y" horiz-adv-x="479" 
d="M371 500h141l-75 -371q-11 -57 -21 -99t-27 -89.5t-37.5 -79t-51.5 -59.5t-68.5 -39.5t-89.5 -11t-115 18.5l95 96q16 -13 39.5 -25t48.5 -11t30 26l43 210q-33 -34 -73.5 -53.5t-77 -19.5t-65.5 19t-39 62t2 109l63 317h142q-14 -70 -40.5 -201t-38.5 -190
q-12 -60 27 -58q38 3 85 54q19 21 32 43z" />
    <glyph glyph-name="z" unicode="z" horiz-adv-x="446" 
d="M125 500h340l-242 -412q57 14 120.5 8t113.5 -30l-81 -65q-169 37 -334 3l-20 -4l260 446h-178z" />
    <glyph glyph-name="braceleft" unicode="{" horiz-adv-x="301" 
d="M335 752h45l-23 -50q-27 0 -40 -3q-26 -7 -40 -23q-29 -29 -41 -64q-9 -31 -10 -76q-3 -41 0 -85q4 -90 -21 -200q-25 -104 -65 -198q-26 -68 -33 -93q-14 -42 -18 -83q0 -25 1 -35q2 -18 9 -25q7 -10 25 -17q13 -4 47 -4l11 -45h-51q-65 -1 -98 30q-33 27 -31 79
q1 40 17 85q0 1 34 88q30 69 36 84q22 60 17 78q-6 22 -39 25q-40 2 -55 2l33 57q4 0 19 0.5t19.5 1t15.5 2.5t16 6t11.5 10.5t10.5 16.5q8 27 10 38q1 5 1.5 11t1 13.5t0.5 11.5q2 46 -1 84q-1 37 0 77q0 27 12 63q11 37 33 66q19 28 57 51q35 21 84 21z" />
    <glyph glyph-name="bar" unicode="|" horiz-adv-x="314" 
d="M108 752h92v-1002h-92v1002z" />
    <glyph glyph-name="braceright" unicode="}" horiz-adv-x="287" 
d="M-54 -250h-45l23 50q27 0 40 3q26 7 40 23q29 29 41 64q9 31 10 76q3 41 0 85q-4 90 21 200q25 104 65 198q25 68 33 93q14 42 18 83q0 25 -1 35q-2 18 -9 25q-7 10 -25 17q-13 4 -47 4l-11 45h51q65 1 98 -30q33 -27 31 -79q-1 -40 -17 -85q0 -1 -34 -88
q-30 -69 -36 -84q-22 -60 -17 -78q6 -22 39 -25q40 -2 55 -2l-33 -57q-4 0 -19 -0.5t-19.5 -1t-15.5 -2.5t-16 -6t-11.5 -10.5t-10.5 -16.5q-8 -27 -10 -38q-1 -5 -1.5 -11t-1 -13.5t-0.5 -11.5q-2 -46 1 -84q1 -37 0 -77q0 -27 -12 -63q-11 -37 -33 -66q-19 -28 -57 -51
q-35 -21 -84 -21z" />
    <glyph glyph-name="asciitilde" unicode="~" horiz-adv-x="441" 
d="M474 671l13 -1q-4 -19 -19 -37t-38 -31q-14 -11 -49 -24q-27 -9 -55 -9q-26 0 -47 6q-16 3 -41 13q-6 1 -12.5 3t-14.5 5t-12 4q-21 7 -41 7q-12 0 -21 -4.5t-13.5 -9.5t-15.5 -18l-22 7q23 48 68 72q41 25 99 25q25 0 48 -5q26 -6 40 -11q6 -2 18.5 -6t18.5 -6
q28 -5 40 -5q14 0 36 6q13 6 20 19z" />
    <glyph glyph-name="exclamdown" unicode="&#xa1;" horiz-adv-x="259" 
d="M192 432q24 -24 24 -57t-24 -56q-23 -23 -57 -23t-56 23q-23 23 -23 56q0 32 23 57q22 24 56 24q33 0 57 -24zM-65 -248l131 471h85l-71 -471h-145z" />
    <glyph glyph-name="cent" unicode="&#xa2;" horiz-adv-x="385" 
d="M276 145q43 8 75 40l6 -31q-29 -24 -59 -37q-25 -11 -59 -16q-28 -4 -61 -1l-23 -127h-30l20 133q-54 13 -85 47q-41 38 -47 106t15 134.5t58 112.5q46 55 104 76q9 3 27 7l14 99l58 31l-22 -126q27 -1 52 -14q51 -26 57 -82q7 -57 -35 -127l-50 78q5 9 13 28q6 17 5 27
q0 31 -33 31q-17 -3 -21 -4l-67 -372q18 -9 39 -12q24 -4 49 -1zM156 179l48 321l-1 -1q-1 -1 -2 -1q-56 -51 -80.5 -138t8.5 -151q18 -22 27 -30z" />
    <glyph glyph-name="sterling" unicode="&#xa3;" horiz-adv-x="475" 
d="M170 89q60 11 165 18t167 3q-21 -50 -51 -107q-197 29 -432 -4q63 77 179 359q-8 2 -13 5q-17 5 -34 5q-4 0 -7.5 -0.5t-6.5 -1t-5.5 -2.5t-4.5 -3t-5 -4l-4.5 -4.5t-5 -5.5t-5.5 -6l-19 6q24 43 59 62q35 20 80 22q73 185 87 271l154 45q-5 -70 -138 -338q6 -1 9 -3
q22 -4 35 -4t30 5q13 7 18 15l11 -1q-3 -13 -16 -31q-16 -16 -32 -26q-14 -10 -42 -21q-24 -7 -48 -7q-20 -40 -64 -126t-61 -121z" />
    <glyph glyph-name="currency" unicode="&#xa4;" horiz-adv-x="479" 
d="M239 444q-43 0 -71 -30q-30 -30 -30 -71q0 -39 30 -71q30 -30 71 -30q39 0 72 30q29 31 29 71q0 42 -29 71q-32 30 -72 30zM53 490l38 36l57 -57q40 31 91 31q25 0 47 -8q22 -7 43 -22l56 57l36 -36l-55 -55q29 -41 29 -93q0 -51 -29 -92l55 -55l-36 -36l-55 56
q-19 -14 -43 -22q-22 -8 -48 -8q-52 0 -92 31l-57 -57l-36 36l57 57q-15 19 -22 42q-8 22 -8 47q0 26 8 48q8 25 22 42z" />
    <glyph glyph-name="yen" unicode="&#xa5;" horiz-adv-x="661" 
d="M625 206h-81q-1 -6 -3.5 -18.5t-4.5 -19.5h113l-24 -36h-100q-11 -32 -32 -60q-17 -25 -44 -44q-51 -38 -115 -35q-48 2 -87 27q-41 26 -64 76q57 44 81 62q5 -31 24 -58q21 -29 45 -36q41 -15 71 31q10 17 17 37h-93l24 36h78q1 3 9 38h-111l24 36h94q12 65 14 80
q-31 -41 -90 -54.5t-115 12.5q-36 19 -46 53q-13 34 -7 89q8 55 24 128l31 136q-106 -10 -140 -41q-20 -19 -14 -61.5t34 -84.5l-106 -49q-32 156 46 229q79 73 303 73l-44 -200q-6 -28 -19 -91q-2 -14 -8 -63q-2 -31 2 -40q15 -28 47.5 -21.5t68 33t50.5 53.5l68 329h108
l-94 -466l-8 -44h98z" />
    <glyph glyph-name="brokenbar" unicode="&#xa6;" horiz-adv-x="308" 
d="M100 301v451h91v-451h-91zM191 -250h-91v473h91v-473z" />
    <glyph glyph-name="section" unicode="&#xa7;" horiz-adv-x="771" 
d="M785 526l-122 76q14 44 -1 67t-49 26q-48 3 -89 -21q-26 -14 -41 -38.5t-13 -44.5q3 -19 7 -26.5t17 -22.5q17 -23 82 -60q10 -6 33 -18.5t39 -23t28 -20.5q48 -38 57 -80q19 -91 -43.5 -153t-167.5 -86q-22 -53 -80.5 -90.5t-128.5 -49.5t-137.5 -7t-116.5 37t-57 84
q-7 49 21 97t84 73l91 -82q-58 -19 -84.5 -48t-15.5 -56q12 -29 64.5 -37.5t105.5 11.5q64 25 91 83q23 51 -61 106q-19 13 -94 59q-65 53 -86 85q-38 57 -16 119.5t100 95.5q44 17 99 27q17 77 107 111q83 39 188 31q69 -6 120 -34t70 -78q16 -50 -1 -112zM501 362
q-76 48 -92 61q-57 34 -87 81q-9 14 -12 24q-21 -15 -34 -36.5t-11 -39.5q1 -12 4.5 -20t6.5 -11.5t15 -18.5q16 -16 20 -19h1l4 -4q5 -4 56 -36q75 -41 101 -62q46 -37 56 -76q19 18 33 49q24 51 -61 108z" />
    <glyph glyph-name="dieresis" unicode="&#xa8;" horiz-adv-x="385" 
d="M49 634q0 25 17.5 43t43.5 18q25 0 43 -18t18 -43q0 -26 -18 -43.5t-43 -17.5q-26 0 -43.5 17.5t-17.5 43.5zM229 634q0 25 17.5 43t43.5 18q25 0 43 -18t18 -43q0 -26 -18 -43.5t-43 -17.5q-26 0 -43.5 17.5t-17.5 43.5z" />
    <glyph glyph-name="copyright" unicode="&#xa9;" horiz-adv-x="591" 
d="M301 582q106 0 180.5 -74.5t74.5 -180.5q0 -105 -74.5 -179.5t-180.5 -74.5t-180 74.5t-74 179.5q0 106 74 180.5t180 74.5zM227 292q-7 20 -7 44q0 23 7 38q6 15 22 29q11 11 29 17q18 5 34 5q28 0 50 -14q23 -14 29 -46l47 18q-17 52 -50 73q-34 24 -74 24
q-22 0 -54 -10q-32 -16 -48 -32q-22 -20 -34 -46q-13 -29 -13 -61t12 -59q10 -28 31 -49q16 -20 46 -35q28 -12 58 -12q40 0 69 18q32 18 53 50l-43 30q-11 -22 -32 -34t-44 -12q-19 0 -37 8q-19 9 -30 22q-13 14 -21 34z" />
    <glyph glyph-name="ordfeminine" unicode="&#xaa;" horiz-adv-x="356" 
d="M392 522l-16 11q-29 -35 -52 -34q-17 1 -11 31q17 86 37 194l4 21h-111q-68 -2 -104.5 -54t-43.5 -125q-5 -54 22 -80.5t66.5 -15.5t67.5 54q3 -38 28 -50.5t57 1.5t56 47zM252 560q-54 -72 -80.5 -51.5t-8.5 100.5q15 70 54 100q38 28 62 -15l-25 -125q0 -6 -2 -9z" />
    <glyph glyph-name="guillemotleft" unicode="&#xab;" horiz-adv-x="526" 
d="M297 401l-170 -148l133 -136l-39 -44l-175 181l210 189zM500 401l-170 -148l133 -136l-38 -44l-177 181l211 189z" />
    <glyph glyph-name="logicalnot" unicode="&#xac;" horiz-adv-x="472" 
d="M397 42h-116l36 176h-259l18 82h374z" />
    <glyph glyph-name="uni00AD" unicode="&#xad;" horiz-adv-x="328" 
d="M286 300l-17 -79h-217l18 79h216z" />
    <glyph glyph-name="registered" unicode="&#xae;" horiz-adv-x="603" 
d="M302 594q106 0 181.5 -75t75.5 -182t-75.5 -182t-181.5 -75t-181 75t-75 182t75 182t181 75zM383 189l47 6l-65 127q24 7 42 28q17 23 17 50q0 43 -29 63q-28 22 -82 22h-98l-2 -295h48v125h59zM378 399q0 -15 -7 -22q-7 -9 -18 -15q-2 -1 -23 -6q-9 -1 -25 -1h-44v90h55
q25 0 43 -10q19 -11 19 -36z" />
    <glyph glyph-name="degree" unicode="&#xb0;" horiz-adv-x="296" 
d="M276 438q-36 -58 -92.5 -65.5t-89.5 50t-7 163.5q7 27 22 50q35 58 93 64q58 5 88 -48q33 -59 7 -164q-9 -30 -21 -50zM249 536q16 115 -23 124q-27 7 -57 -38q-25 -38 -31 -84q-10 -74 13 -111q24 -36 58 12q9 13 18 32q15 26 22 65z" />
    <glyph glyph-name="plusminus" unicode="&#xb1;" horiz-adv-x="506" 
d="M415 147l-17 -79h-368l18 79h367zM374 543l-27 -122h127l-23 -112h-128l-26 -123h-114l27 123h-129l25 112h128l27 122h113z" />
    <glyph glyph-name="twosuperior" unicode="&#xb2;" horiz-adv-x="349" 
d="M147 396q33 10 94.5 8.5t107.5 -15.5l-76 -53q-72 14 -99.5 14t-89.5 -14l4 47q10 16 20 25q28 30 42 45.5t46.5 57t50 81t19.5 76.5q2 40 -29 44q-28 5 -47 -20q-16 -21 -5 -48q-28 -20 -68 -44q2 64 34.5 107.5t95.5 40.5q20 0 44 -11q20 -12 30 -27q11 -20 11 -37
q1 -43 -14.5 -83.5t-47.5 -77.5t-57 -60t-66 -56z" />
    <glyph glyph-name="threesuperior" unicode="&#xb3;" horiz-adv-x="350" 
d="M138 355q-42 20 -47 67q-1 22 3 42l59 -21l-2 -5l-2 -6q-4 -12 -4 -22q0 -24 27 -26q49 -2 81 35t14.5 75.5t-86.5 38.5l3 36q43 13 67 40t26 60q2 39 -29 44q-28 4 -46 -20q-15 -21 -3 -47q-37 -24 -65 -44q0 63 31 106t93 40q21 -1 44 -11q14 -8 28 -26q11 -20 11 -36
q0 -9 -1.5 -18.5t-3 -17t-6.5 -16t-7.5 -13.5t-9.5 -14t-9.5 -11.5t-11 -12t-9.5 -10.5q66 -18 63 -81q-2 -56 -53 -101q-63 -56 -134 -34q-11 4 -21 9z" />
    <glyph glyph-name="acute" unicode="&#xb4;" horiz-adv-x="299" 
d="M126 751h107l-86 -190h-79z" />
    <glyph glyph-name="mu" unicode="&#xb5;" horiz-adv-x="520" 
d="M284 70q-37 -44 -83 -69t-85 -23q-5 -23 -12.5 -62t-11.5 -56l-127 -27q1 7 132 667h123q-5 -25 -79 -404q-13 -62 25 -60q38 3 85 54q20 22 33 46q0 3 72 364h122q-12 -60 -38.5 -198.5t-40.5 -205.5q-12 -60 26 -58t86 53q32 35 45 72h40q-38 -103 -124 -156
q-78 -47 -135 -20q-44 21 -53 83z" />
    <glyph glyph-name="paragraph" unicode="&#xb6;" horiz-adv-x="509" 
d="M222 -80h-94l76 367q-35 6 -65 26q-28 20 -46 47q-19 26 -28 60q-9 28 -9 68q0 46 16 93q15 46 47 82q28 34 77 59q31 15 86.5 22t98 7.5t111 -1t80.5 -1.5l-24 -71h-87q7 -9 10 -18q16 -31 16 -76q0 -23 -3 -35q-2 -25 -5 -37l-126 -590l-93 -2l82 378q-8 -3 -22 -7
q-4 -1 -11 -2t-10 -2zM309 338h7q19 0 34 3l48 226q6 29 6 50q0 23 -6 36q-10 20 -16 25z" />
    <glyph glyph-name="cedilla" unicode="&#xb8;" horiz-adv-x="237" 
d="M24 -186q-19 30 -5 55l39 -16q-1 -2 -2 -6t-2 -6.5t-1.5 -6t-0.5 -5.5t0.5 -5t2.5 -4.5t5 -3t8 -1.5q39 -3 65 26q34 44 -2 64q-33 19 -84 -1q-4 -1 -8 -3l42 122l33 -23l-19 -54q102 21 131 -28q22 -37 -9 -80q-36 -52 -108 -53q-17 0 -34 3q-36 6 -51 26z" />
    <glyph glyph-name="onesuperior" unicode="&#xb9;" horiz-adv-x="227" 
d="M127 706q95 28 137 42l-85 -404h-77l69 328h-53z" />
    <glyph glyph-name="ordmasculine" unicode="&#xba;" horiz-adv-x="309" 
d="M366 661q-37 -31 -67 -43q-8 -49 -32 -84.5t-54.5 -50.5t-61.5 -17.5t-56 12t-36 42.5q-7 22 -6 45q5 91 57.5 141t109.5 43.5t76 -56.5q7 -19 7 -39q31 7 62 26zM232 609q-28 6 -54 28l30 37q16 -12 24 -15q-8 45 -35 54q-33 11 -57 -50q-9 -24 -16 -57q-5 -30 0 -57
q18 -67 54 -45q32 20 49 86q3 8 4 16q0 2 1 3z" />
    <glyph glyph-name="guillemotright" unicode="&#xbb;" horiz-adv-x="519" 
d="M230 109l170 148l-133 136l39 44l175 -181l-210 -189zM27 109l170 148l-133 136l38 44l177 -181l-211 -189z" />
    <glyph glyph-name="onequarter" unicode="&#xbc;" horiz-adv-x="664" 
d="M195 -167h-64l194 919h63zM128 225h-79l72 338h-56l10 35q25 8 70.5 22t70.5 22zM523 0h-77q7 37 29 148h-142h-1q29 61 41 104.5t24 116.5l77 52q-4 -50 -27 -118.5t-47 -106.5h85q6 29 20 95t21 100l86 28l-47 -223h45l-28 -48h-27z" />
    <glyph glyph-name="onehalf" unicode="&#xbd;" horiz-adv-x="649" 
d="M338 752h65l-194 -919h-64zM82 597q110 34 141 44l-88 -417h-78l71 338h-56zM402 61q34 11 97 10t110 -15l-78 -56q-75 14 -101 14.5t-93 -14.5l4 48q3 5 20 26q156 160 162 265q3 41 -29 46q-28 5 -47 -19q-18 -22 -5 -51q-25 -13 -69 -45q0 65 32.5 110t97.5 43
q26 -1 46 -12q19 -10 31 -27q11 -19 12 -38q1 -45 -14.5 -86t-49.5 -80t-57.5 -60.5t-68.5 -58.5z" />
    <glyph glyph-name="threequarters" unicode="&#xbe;" horiz-adv-x="778" 
d="M237 442q68 -19 66 -83q-2 -58 -55 -106q-64 -59 -137 -39q-14 4 -28 11q-44 22 -47 71q-2 11 2 43l62 -23q-2 -4 -2 -5t-2 -5q-5 -12 -5 -24q0 -27 28 -27q53 -3 87.5 36t15.5 79.5t-94 40.5l2 39q46 13 72.5 41t28.5 65q1 40 -32 44q-29 4 -47 -21q-17 -21 -4 -49
q-9 -5 -34.5 -22.5t-34.5 -23.5q1 67 33.5 112t97.5 42q31 -3 44 -13q22 -14 32 -27q10 -15 12 -37q0 -13 -3 -26.5t-6 -22t-12 -21.5t-12 -17t-15 -17.5t-13 -14.5zM448 752h66l-199 -917h-63zM732 419l-46 -223h42l-24 -48h-29l-32 -148h-77q5 25 15 74t15 74h-143h-1
q31 61 43 104.5t22 117.5l79 49q-5 -49 -28.5 -117t-47.5 -106h87q18 103 40 196z" />
    <glyph glyph-name="questiondown" unicode="&#xbf;" horiz-adv-x="417" 
d="M215 290q-32 0 -58 24q-23 25 -23 57t23 58q24 25 58 25t58 -25q25 -25 25 -58q0 -34 -25 -57q-26 -24 -58 -24zM325 6q16 -108 -42 -183t-169 -73q-124 2 -157 60q-29 58 -15 112.5t60 101.5q17 17 47 46.5t40.5 40.5t27 31.5t25.5 38.5t17 43h79q-4 -24 -12.5 -47.5
t-16 -39.5t-23.5 -39.5t-22 -31.5t-25.5 -32t-21.5 -27q-3 -3 -14.5 -17t-15.5 -19.5t-14 -19t-13.5 -21t-9 -20.5t-5.5 -22.5t1.5 -21.5t8 -22.5t17.5 -21.5q21 -20 56 -21q49 0 78 43.5t6 90.5q81 48 113 71z" />
    <glyph glyph-name="Aacute" unicode="&#xc1;" horiz-adv-x="637" 
d="M177 658q34 27 81 46t87.5 28.5t106.5 14t102.5 5t112.5 0.5h35q-23 -117 -74 -368.5t-76 -383.5h-140l45 205h-229l-172 -204h-96q555 653 572 673q-4 0 -48.5 -2t-66.5 -4t-61 -7t-68 -14.5t-52 -23.5q-39 -25 -52.5 -77.5t8.5 -113.5l-135 -62q12 203 120 288z
M476 290q20 94 62 280l-237 -280h175zM574 999l107 1l-87 -191h-79z" />
    <glyph glyph-name="Acircumflex" unicode="&#xc2;" horiz-adv-x="639" 
d="M612 1000l86 -175l-61 -6l-59 82l-108 -86l-90 -6l179 187zM177 658q34 27 81 46t87.5 28.5t106.5 14t102.5 5t112.5 0.5h35q-23 -117 -74 -368.5t-76 -383.5h-140l45 205h-229l-172 -204h-96q555 653 572 673q-4 0 -48.5 -2t-66.5 -4t-61 -7t-68 -14.5t-52 -23.5
q-39 -25 -52.5 -77.5t8.5 -113.5l-135 -62q12 203 120 288zM476 290q20 94 62 280l-237 -280h175z" />
    <glyph glyph-name="Adieresis" unicode="&#xc4;" horiz-adv-x="625" 
d="M177 658q34 27 81 46t87.5 28.5t106.5 14t102.5 5t112.5 0.5h35q-23 -117 -74 -368.5t-76 -383.5h-140l45 205h-229l-172 -204h-96l572 673q-4 0 -48.5 -2t-66.5 -4t-61 -7t-68 -14.5t-52 -23.5q-39 -25 -52.5 -77.5t8.5 -113.5l-135 -62q12 203 120 288zM476 290
q20 94 62 280l-237 -280h175zM400 884q0 28 18.5 47t47.5 19q27 0 46.5 -19.5t19.5 -46.5q0 -28 -19.5 -47t-46.5 -19q-29 0 -47.5 19t-18.5 47zM594 884q0 27 19 46.5t47 19.5q27 0 46.5 -19.5t19.5 -46.5q0 -28 -19.5 -47t-46.5 -19q-28 0 -47 19t-19 47z" />
    <glyph glyph-name="Aring" unicode="&#xc5;" horiz-adv-x="603" 
d="M177 658q34 27 81 46t87.5 28.5t106.5 14t102.5 5t112.5 0.5h35q-23 -117 -74 -368.5t-76 -383.5h-140l45 205h-229l-172 -204h-96q555 653 572 673q-4 0 -48.5 -2t-66.5 -4t-61 -7t-68 -14.5t-52 -23.5q-39 -25 -52.5 -77.5t8.5 -113.5l-135 -62q12 203 120 288z
M476 290q20 94 62 280l-237 -280h175zM506 885q0 17 6 30q6 16 18 26q10 11 25 18q17 7 32 7q13 0 31 -7q15 -7 25 -18q10 -9 19 -25q6 -15 6 -31q0 -17 -6 -32q-7 -15 -19 -25q-10 -11 -25 -18q-15 -6 -31 -6q-17 0 -32 6q-15 7 -25 18q-12 11 -18 25q-6 15 -6 32zM538 905
q-5 -12 -5 -20q0 -11 5 -21q3 -9 11 -17t17 -11q10 -5 21 -5q10 0 20 5q8 3 18 11q8 8 11 17q4 8 4 21q0 11 -4 20q-3 10 -12 17q-7 7 -17 12q-8 4 -20 4q-13 0 -21 -4q-10 -5 -17 -12q-8 -8 -11 -17z" />
    <glyph glyph-name="AE" unicode="&#xc6;" horiz-adv-x="901" 
d="M756 752h220l-30 -89h-209q-4 -21 -12.5 -62.5t-12.5 -62.5l-15 -72h148l-27 -88h-139l-57 -289h222l-26 -89h-212h-154l45 204h-228l-172 -204h-95q180 213 571 672q-62 -2 -96 -3.5t-98 -13.5t-101 -33q-40 -23 -55.5 -75.5t6.5 -112.5l-136 -63q13 214 149 303
q45 28 100 45t128 23.5t120 8t136 1.5h30zM517 291q8 33 29 129t33 148l-236 -277h174z" />
    <glyph glyph-name="Ccedilla" unicode="&#xc7;" horiz-adv-x="555" 
d="M681 167q-42 -89 -136 -136.5t-204 -46.5l-17 -49q98 21 128 -28q23 -37 -6 -81q-34 -51 -102 -51q-19 0 -40 5q-35 9 -50 26q-8 11 -8 31q0 13 4 24l38 -17l-4 -5q-5 -12 -5 -15q-1 -8 4 -12t15 -5q10 -2 31 2q21 8 32 25q34 43 -1 62q-34 18 -83 -2q-4 -1 -7 -3l32 95
q-128 11 -202 84q-62 60 -71.5 166t23.5 208t90 173q66 82 162 117q114 40 198 -5q79 -39 89 -126q10 -89 -55 -197l-81 128q32 47 32 79q0 47 -51 47q-58 -2 -116 -56q-54 -50 -93 -132t-46 -165.5t29 -148.5q38 -61 121 -88t171 -2.5t131 99.5h48z" />
    <glyph glyph-name="Eacute" unicode="&#xc9;" horiz-adv-x="647" 
d="M534 999l107 1l-87 -191h-79zM733 752q-44 0 -136.5 -0.5t-120.5 -0.5q-55 0 -107 -4q-148 -16 -228 -75q-114 -91 -87 -300l135 63q-32 54 -32.5 105.5t28.5 76.5q41 37 173 49l-135 -666h353l25 88h-223l60 290h138l26 88h-147l38 197h211z" />
    <glyph glyph-name="Edieresis" unicode="&#xcb;" horiz-adv-x="654" 
d="M733 752l-29 -89h-211l-38 -197h147l-26 -88h-138l-60 -290h223l-25 -88h-353l135 666q-132 -12 -173 -49q-29 -25 -28.5 -76.5t32.5 -105.5l-135 -63q-27 209 87 300q80 59 228 75q52 4 107 4q28 0 120.5 0.5t136.5 0.5zM385 884q0 28 18.5 47t47.5 19q27 0 46.5 -19.5
t19.5 -46.5q0 -28 -19.5 -47t-46.5 -19q-29 0 -47.5 19t-18.5 47zM579 884q0 27 19 46.5t47 19.5q27 0 46.5 -19.5t19.5 -46.5q0 -28 -19.5 -47t-46.5 -19q-28 0 -47 19t-19 47z" />
    <glyph glyph-name="Iacute" unicode="&#xcd;" 
d="M529 752l-149 -752h-136l133 666q-132 -12 -178 -52q-26 -23 -23 -75t33 -106l-137 -61q-25 204 81 292q60 51 153 69t223 19zM402 999l107 1l-87 -191h-79z" />
    <glyph glyph-name="Icircumflex" unicode="&#xce;" horiz-adv-x="484" 
d="M529 752l-149 -752h-136l133 666q-132 -12 -178 -52q-26 -23 -23 -75t33 -106l-137 -61q-25 204 81 292q60 51 153 69t223 19zM459 1000l86 -175l-61 -6l-59 82l-108 -86l-90 -6l179 187z" />
    <glyph glyph-name="Idieresis" unicode="&#xcf;" horiz-adv-x="404" 
d="M529 752l-149 -752h-136l133 666q-132 -12 -178 -52q-26 -23 -23 -75t33 -106l-137 -61q-25 204 81 292q60 51 153 69t223 19zM224 884q0 28 18.5 47t47.5 19q27 0 46.5 -19.5t19.5 -46.5q0 -28 -19.5 -47t-46.5 -19q-29 0 -47.5 19t-18.5 47zM418 884q0 27 19 46.5
t47 19.5q27 0 46.5 -19.5t19.5 -46.5q0 -28 -19.5 -47t-46.5 -19q-28 0 -47 19t-19 47z" />
    <glyph glyph-name="Eth" unicode="&#xd0;" horiz-adv-x="684" 
d="M143 431l-136 -63q-23 170 113 283q58 49 135 75.5t154 23.5t143.5 -29t109 -87t44.5 -147q2 -51 -8 -101q-7 -53 -26 -109q-15 -42 -47 -103q-26 -45 -70 -91q-43 -36 -94 -60q-55 -23 -118 -23h-197l73 371h-59l15 83h61l44 219q-66 -25 -108 -64q-36 -33 -45 -84.5
t16 -93.5zM377 454h91l-14 -83h-94l-58 -296q46 -5 72 5q37 15 69.5 47t64.5 101q28 63 46 143q18 85 15 158q-1 76 -41 116t-105 47z" />
    <glyph glyph-name="Oacute" unicode="&#xd3;" horiz-adv-x="700" 
d="M727 481q0 -59 -8 -104q-8 -56 -26 -110q-15 -50 -45 -106q-33 -56 -68 -91q-38 -37 -92 -62q-50 -23 -117 -23q-45 0 -77 11q-34 9 -60 35q-25 23 -38 60q-14 40 -14 92q-2 44 4 90q21 162 137 344l158 18q-131 -189 -153 -336q-7 -49 -6.5 -91t11 -70t25.5 -45.5
t36.5 -18t43.5 12.5t46.5 47t46.5 85q29 62 45 143q16 82 15 162q-2 79 -46 122t-104.5 46.5t-125 -17t-108.5 -59.5q-40 -37 -47.5 -91.5t21.5 -98.5l-139 -64q-28 191 127 306q74 55 169.5 73t180.5 -1t145 -86.5t63 -172.5zM528 999l107 1l-87 -191h-79z" />
    <glyph glyph-name="Ocircumflex" unicode="&#xd4;" horiz-adv-x="685" 
d="M715 481q0 -59 -8 -104q-8 -56 -26 -110q-15 -50 -45 -106q-33 -56 -68 -91q-38 -37 -92 -62q-50 -23 -117 -23q-45 0 -77 11q-34 9 -60 35q-25 23 -38 60q-14 40 -14 92q-2 44 4 90q21 162 137 344l158 18q-131 -189 -153 -336q-7 -49 -6.5 -91t11 -70t25.5 -45.5
t36.5 -18t43.5 12.5t46.5 47t46.5 85q29 62 45 143q16 82 15 162q-2 79 -46 122t-104.5 46.5t-125 -17t-108.5 -59.5q-40 -37 -47.5 -91.5t21.5 -98.5l-139 -64q-28 191 127 306q74 55 169.5 73t180.5 -1t145 -86.5t63 -172.5zM539 1000l86 -175l-61 -6l-59 82l-108 -86
l-90 -6l179 187z" />
    <glyph glyph-name="Odieresis" unicode="&#xd6;" horiz-adv-x="700" 
d="M730 481q0 -59 -8 -104q-8 -56 -26 -110q-15 -50 -45 -106q-33 -56 -68 -91q-38 -37 -92 -62q-50 -23 -117 -23q-45 0 -77 11q-34 9 -60 35q-25 23 -38 60q-14 40 -14 92q-2 44 4 90q21 162 137 344l158 18q-131 -189 -153 -336q-7 -49 -6.5 -91t11 -70t25.5 -45.5
t36.5 -18t43.5 12.5t46.5 47t46.5 85q29 62 45 143q16 82 15 162q-2 79 -46 122t-104.5 46.5t-125 -17t-108.5 -59.5q-40 -37 -47.5 -91.5t21.5 -98.5l-139 -64q-28 191 127 306q74 55 169.5 73t180.5 -1t145 -86.5t63 -172.5zM316 884q0 28 18.5 47t47.5 19
q27 0 46.5 -19.5t19.5 -46.5q0 -28 -19.5 -47t-46.5 -19q-29 0 -47.5 19t-18.5 47zM510 884q0 27 19 46.5t47 19.5q27 0 46.5 -19.5t19.5 -46.5q0 -28 -19.5 -47t-46.5 -19q-28 0 -47 19t-19 47z" />
    <glyph glyph-name="multiply" unicode="&#xd7;" horiz-adv-x="429" 
d="M45 355l68 67l98 -100l102 101l67 -68l-100 -99l100 -101l-67 -68l-102 100l-98 -99l-68 67l100 101z" />
    <glyph glyph-name="Oslash" unicode="&#xd8;" horiz-adv-x="598" 
d="M622 446q0 -57 -7 -98q-5 -44 -23 -98q-19 -60 -43 -98q-34 -57 -64 -84q-25 -26 -87 -59q-15 -7 -45 -15l-15 -72h-48l10 66h-7q-34 0 -72 10q-22 6 -53 33q-27 28 -37 56q-9 24 -15 83q0 6 5 84q19 147 128 317l146 18q-120 -179 -142 -313q-15 -86 3.5 -143.5
t57.5 -62.5l92 557q-68 26 -156 -1t-136.5 -89t-12.5 -124l-111 -78q-9 63 4.5 119.5t44.5 96.5t74.5 72.5t94.5 48t104 21.5t103 -6l12 65h59l-15 -84q68 -27 109 -83t42 -139zM483 336q15 73 13 149q-3 72 -38 108l-90 -501q36 32 73 112q27 59 42 132z" />
    <glyph glyph-name="Uacute" unicode="&#xda;" horiz-adv-x="775" 
d="M687 752h137l-151 -752h-138l22 93q-42 -65 -117.5 -86t-144.5 22q-44 25 -59 80q-12 51 -3 136q10 77 37 197l51 226q-124 -13 -170 -48q-30 -24 -29.5 -77t32.5 -110l-135 -61q-25 200 85 294q109 87 372 87l-18 -78l-48 -230q-4 -17 -14.5 -67.5t-14.5 -72.5
q-9 -55 -12 -97q-5 -45 0 -61q18 -55 90 -21q62 30 107 93q11 14 18 28zM602 999l107 1l-87 -191h-79z" />
    <glyph glyph-name="Udieresis" unicode="&#xdc;" horiz-adv-x="778" 
d="M687 752h137l-151 -752h-138l22 93q-42 -65 -117.5 -86t-144.5 22q-44 25 -59 80q-12 51 -3 136q10 77 37 197l51 226q-124 -13 -170 -48q-30 -24 -29.5 -77t32.5 -110l-135 -61q-25 200 85 294q109 87 372 87l-18 -78l-48 -230q-4 -17 -14.5 -67.5t-14.5 -72.5
q-9 -55 -12 -97q-5 -45 0 -61q18 -55 90 -21q62 30 107 93q11 14 18 28zM427 884q0 28 18.5 47t47.5 19q27 0 46.5 -19.5t19.5 -46.5q0 -28 -19.5 -47t-46.5 -19q-29 0 -47.5 19t-18.5 47zM621 884q0 27 19 46.5t47 19.5q27 0 46.5 -19.5t19.5 -46.5q0 -28 -19.5 -47
t-46.5 -19q-28 0 -47 19t-19 47z" />
    <glyph glyph-name="Yacute" unicode="&#xdd;" horiz-adv-x="773" 
d="M172 433q-35 53 -43 107t17 78q49 43 178 52l-41 -173q-4 -21 -13.5 -70.5t-13 -73t-3 -61t9.5 -68.5q21 -58 83 -77.5t128.5 0t104.5 64.5q-33 -185 -47 -232q-38 -115 -114 -96q-56 20 -88 120q-83 -66 -100 -78q44 -101 144.5 -126t191.5 39q31 23 56 57q30 42 59 167
t142 690h-136l-88 -415q-14 -24 -43.5 -50t-62 -43t-62 -16t-40.5 27q-7 17 5.5 99t25.5 145l57 253q-131 0 -227.5 -18t-156.5 -71q-45 -44 -61 -116t3 -175zM602 999l107 1l-87 -191h-79z" />
    <glyph glyph-name="Thorn" unicode="&#xde;" horiz-adv-x="518" 
d="M519 550q28 -72 3 -136.5t-90 -113t-143 -59.5l-48 -241h-117l117 578q-72 -28 -110 -80.5t-6 -107.5l-102 -74q-17 117 51.5 199t176.5 111l22 109l119 17l-23 -115q114 -8 150 -87zM300 295q55 14 96.5 81t40.5 131q-3 75 -77 87q-3 -14 -26 -127t-34 -172z" />
    <glyph glyph-name="germandbls" unicode="&#xdf;" horiz-adv-x="448" 
d="M312 425q61 -21 90 -53.5t29 -93.5q0 -74 -19 -133q-11 -31 -23 -54t-24.5 -39t-26.5 -26t-30.5 -15.5t-35 -8t-40.5 -2.5h-48h-32l13 59q65 -6 85 22q25 37 34 64q13 37 18 80q6 43 6 78q0 31 -16 55q-13 23 -52 44l15 70q36 -1 56 17q27 29 27 72q0 30 -10 41
q-10 10 -29 10q-9 0 -18 -4q-11 -3 -21 -12q-10 -12 -18 -25q-7 -13 -14 -42l-11 -51l-13 -61l-140 -662l-1 -3h-145l164 777q10 51 32 88q18 31 46 52q26 19 54 25q25 7 52 7q34 0 61 -11q26 -10 44 -28q18 -19 25 -41q9 -24 9 -49q0 -43 -24 -85q-25 -42 -69 -62z" />
    <glyph glyph-name="aacute" unicode="&#xe1;" horiz-adv-x="530" 
d="M605 171h39q-36 -97 -124 -148q-79 -46 -139 -22q-54 22 -59 93q-26 -38 -61.5 -63t-71.5 -33.5t-71.5 -1.5t-61.5 28t-40 59.5t-10 88.5q5 63 23.5 118.5t50 103t82.5 76t116 30.5h253l-8 -38q-16 -78 -40 -189.5t-35 -167.5q-11 -57 28 -54.5t86 52.5q31 33 43 68z
M328 178l45 230q-37 68 -98 35q-58 -31 -95 -126q-13 -33 -21 -68q-16 -71 -9.5 -116.5t26.5 -65.5t59.5 3t89.5 90q0 2 1 5.5t1.5 6.5t0.5 6zM380 751l107 1l-87 -191h-79z" />
    <glyph glyph-name="acircumflex" unicode="&#xe2;" horiz-adv-x="526" 
d="M605 171h39q-36 -97 -124 -148q-79 -46 -139 -22q-54 22 -59 93q-26 -38 -61.5 -63t-71.5 -33.5t-71.5 -1.5t-61.5 28t-40 59.5t-10 88.5q5 63 23.5 118.5t50 103t82.5 76t116 30.5h253l-8 -38q-16 -78 -40 -189.5t-35 -167.5q-11 -57 28 -54.5t86 52.5q31 33 43 68z
M328 178l45 230q-37 68 -98 35q-58 -31 -95 -126q-13 -33 -21 -68q-16 -71 -9.5 -116.5t26.5 -65.5t59.5 3t89.5 90q0 2 1 5.5t1.5 6.5t0.5 6zM392 752l86 -175l-61 -6l-59 82l-108 -86l-90 -6l179 187z" />
    <glyph glyph-name="adieresis" unicode="&#xe4;" horiz-adv-x="526" 
d="M605 171h39q-36 -97 -124 -148q-79 -46 -139 -22q-54 22 -59 93q-26 -38 -61.5 -63t-71.5 -33.5t-71.5 -1.5t-61.5 28t-40 59.5t-10 88.5q5 63 23.5 118.5t50 103t82.5 76t116 30.5h253l-8 -38q-16 -78 -40 -189.5t-35 -167.5q-11 -57 28 -54.5t86 52.5q31 33 43 68z
M328 178l45 230q-37 68 -98 35q-58 -31 -95 -126q-13 -33 -21 -68q-16 -71 -9.5 -116.5t26.5 -65.5t59.5 3t89.5 90zM175 634q0 28 18.5 47t47.5 19q27 0 46.5 -19.5t19.5 -46.5q0 -28 -19.5 -47t-46.5 -19q-29 0 -47.5 19t-18.5 47zM369 634q0 27 19 46.5t47 19.5
q27 0 46.5 -19.5t19.5 -46.5q0 -28 -19.5 -47t-46.5 -19q-28 0 -47 19t-19 47z" />
    <glyph glyph-name="aring" unicode="&#xe5;" horiz-adv-x="512" 
d="M605 171h39q-36 -97 -124 -148q-79 -46 -139 -22q-54 22 -59 93q-26 -38 -61.5 -63t-71.5 -33.5t-71.5 -1.5t-61.5 28t-40 59.5t-10 88.5q5 63 23.5 118.5t50 103t82.5 76t116 30.5h253l-8 -38q-16 -78 -40 -189.5t-35 -167.5q-11 -57 28 -54.5t86 52.5q31 33 43 68z
M328 178l45 230q-37 68 -98 35q-58 -31 -95 -126q-13 -33 -21 -68q-16 -71 -9.5 -116.5t26.5 -65.5t59.5 3t89.5 90q0 2 1 5.5t1.5 6.5t0.5 6zM248 633q0 17 6 30q6 16 18 26q10 11 25 18q17 7 32 7q13 0 31 -7q15 -7 25 -18q10 -9 19 -25q6 -15 6 -31q0 -17 -6 -32
q-7 -15 -19 -25q-10 -11 -25 -18q-15 -6 -31 -6q-17 0 -32 6q-15 7 -25 18q-12 11 -18 25q-6 15 -6 32zM280 653q-5 -12 -5 -20q0 -11 5 -21q3 -9 11 -17t17 -11q10 -5 21 -5q10 0 20 5q8 3 18 11q8 8 11 17q4 8 4 21q0 11 -4 20q-3 10 -12 17q-7 7 -17 12q-8 4 -20 4
q-13 0 -21 -4q-10 -5 -17 -12q-8 -8 -11 -17z" />
    <glyph glyph-name="ccedilla" unicode="&#xe7;" horiz-adv-x="351" 
d="M123 -185q-10 13 -10 29q0 14 4 25l39 -17l-4 -6q-4 -10 -4 -13q-2 -15 16 -17q17 -1 32 2q18 7 32 23q33 42 -1 62q-32 19 -81 -1q-4 -1 -8 -3l41 119l31 -23l-18 -53q97 21 125 -29q21 -36 -7 -79q-35 -51 -103 -50q-18 1 -36 5q-37 10 -48 26zM434 168
q-46 -80 -112.5 -128t-146.5 -51q-70 -3 -113.5 36t-52 100t2.5 132q15 79 57.5 142.5t108.5 90.5q82 36 139 -9q38 -30 43 -83.5t-20 -95.5q-8 -16 -13 -23l-47 82q37 70 17 85q-22 13 -57 -11q-38 -27 -62.5 -80t-34.5 -110q-11 -74 5.5 -120.5t53.5 -61.5q84 -31 196 105
h36z" />
    <glyph glyph-name="eacute" unicode="&#xe9;" horiz-adv-x="342" 
d="M391 172h36q-38 -76 -111 -128t-154 -50q-68 2 -108 43t-48 100.5t7 126.5t50 123q27 42 65 71t74 39t69.5 6.5t54.5 -21.5q37 -29 41.5 -81t-19.5 -95q-63 -116 -215 -111q1 -40 16.5 -75t45.5 -50q84 -39 196 102zM137 253q0 -2 -0.5 -6t-0.5 -5q45 -1 78.5 17.5
t50.5 47t25 58.5t6.5 53t-9.5 29q-16 12 -45 -4t-55 -57q-34 -52 -50 -133zM271 751l107 1l-87 -191h-79z" />
    <glyph glyph-name="edieresis" unicode="&#xeb;" horiz-adv-x="342" 
d="M391 172h36q-38 -76 -111 -128t-154 -50q-68 2 -108 43t-48 100.5t7 126.5t50 123q27 42 65 71t74 39t69.5 6.5t54.5 -21.5q37 -29 41.5 -81t-19.5 -95q-63 -116 -215 -111q1 -40 16.5 -75t45.5 -50q84 -39 196 102zM137 253q0 -2 -0.5 -6t-0.5 -5q45 -1 78.5 17.5
t50.5 47t25 58.5t6.5 53t-9.5 29q-16 12 -45 -4t-55 -57q-34 -52 -50 -133zM122 634q0 28 18.5 47t47.5 19q27 0 46.5 -19.5t19.5 -46.5q0 -28 -19.5 -47t-46.5 -19q-29 0 -47.5 19t-18.5 47zM316 634q0 27 19 46.5t47 19.5q27 0 46.5 -19.5t19.5 -46.5q0 -28 -19.5 -47
t-46.5 -19q-28 0 -47 19t-19 47z" />
    <glyph glyph-name="iacute" unicode="&#xed;" horiz-adv-x="247" 
d="M301 177h39q-37 -100 -125 -153q-81 -48 -143 -23q-72 29 -63 140q2 20 6 42l66 317h138q-18 -96 -44 -222.5t-34 -167.5q-11 -60 28 -58t86 53q33 35 46 72zM179 751l107 1l-87 -191h-79z" />
    <glyph glyph-name="icircumflex" unicode="&#xee;" horiz-adv-x="247" 
d="M301 177h39q-37 -100 -125 -153q-81 -48 -143 -23q-72 29 -63 140q2 20 6 42l66 317h138q-18 -96 -44 -222.5t-34 -167.5q-11 -60 28 -58t86 53q33 35 46 72zM232 752l86 -175l-61 -6l-59 82l-108 -86l-90 -6l179 187z" />
    <glyph glyph-name="oacute" unicode="&#xf3;" horiz-adv-x="504" 
d="M570 392l3 -34q-62 -56 -119 -82q-8 -66 -34.5 -120t-61.5 -86.5t-77 -54t-82.5 -21.5t-77.5 11q-67 24 -96 81.5t-21 130.5q9 75 51.5 143.5t110.5 107.5q36 21 76.5 30t80 5.5t73 -27t50.5 -65.5q13 -31 13 -70q58 14 111 51zM334 253v4q-47 9 -96 46l52 71
q19 -17 43 -27q-8 39 -29.5 66.5t-49.5 30.5t-57 -36q-27 -38 -44.5 -108t-10 -140t48.5 -93q18 -13 39 -6t40.5 26.5t37 63t26.5 102.5zM326 751l107 1l-87 -191h-79z" />
    <glyph glyph-name="ocircumflex" unicode="&#xf4;" horiz-adv-x="489" 
d="M570 392l3 -34q-62 -56 -119 -82q-8 -66 -34.5 -120t-61.5 -86.5t-77 -54t-82.5 -21.5t-77.5 11q-67 24 -96 81.5t-21 130.5q9 75 51.5 143.5t110.5 107.5q36 21 76.5 30t80 5.5t73 -27t50.5 -65.5q13 -31 13 -70q58 14 111 51zM334 253v4q-47 9 -96 46l52 71
q19 -17 43 -27q-8 39 -29.5 66.5t-49.5 30.5t-57 -36q-27 -38 -44.5 -108t-10 -140t48.5 -93q18 -13 39 -6t40.5 26.5t37 63t26.5 102.5zM356 752l86 -175l-61 -6l-59 82l-108 -86l-90 -6l179 187z" />
    <glyph glyph-name="odieresis" unicode="&#xf6;" 
d="M570 392l3 -34q-62 -56 -119 -82q-8 -66 -34.5 -120t-61.5 -86.5t-77 -54t-82.5 -21.5t-77.5 11q-67 24 -96 81.5t-21 130.5q9 75 51.5 143.5t110.5 107.5q36 21 76.5 30t80 5.5t73 -27t50.5 -65.5q13 -31 13 -70q58 14 111 51zM334 253v4q-47 9 -96 46l52 71
q19 -17 43 -27q-8 39 -29.5 66.5t-49.5 30.5t-57 -36q-27 -38 -44.5 -108t-10 -140t48.5 -93q18 -13 39 -6t40.5 26.5t37 63t26.5 102.5zM134 634q0 28 18.5 47t47.5 19q27 0 46.5 -19.5t19.5 -46.5q0 -28 -19.5 -47t-46.5 -19q-29 0 -47.5 19t-18.5 47zM328 634
q0 27 19 46.5t47 19.5q27 0 46.5 -19.5t19.5 -46.5q0 -28 -19.5 -47t-46.5 -19q-28 0 -47 19t-19 47z" />
    <glyph glyph-name="divide" unicode="&#xf7;" horiz-adv-x="415" 
d="M161 417q0 32 23 57q24 24 56 24q34 0 58 -24q22 -23 22 -57t-22 -56q-26 -24 -58 -24q-30 0 -56 24q-23 23 -23 56zM101 80q0 34 22 57q24 24 57 24t57 -24q24 -26 24 -57q0 -30 -24 -56q-25 -23 -57 -23t-57 23q-22 23 -22 56zM426 289l-20 -85h-410l20 85h410z" />
    <glyph glyph-name="uacute" unicode="&#xfa;" horiz-adv-x="467" 
d="M525 173h39q-35 -100 -119 -152q-74 -45 -129 -19q-43 21 -52 81q-31 -39 -70.5 -62.5t-75 -26.5t-64 14t-39 60t0.5 111l64 321h136q-13 -68 -39 -200t-37 -193q-11 -60 21 -58q32 3 74 56q16 20 27 41q1 2 67 354h134q-14 -74 -38 -202.5t-35 -190.5
q-10 -58 22.5 -55.5t73.5 52.5q27 33 39 69zM295 751l107 1l-87 -191h-79z" />
    <glyph glyph-name="udieresis" unicode="&#xfc;" horiz-adv-x="465" 
d="M525 173h39q-35 -100 -119 -152q-74 -45 -129 -19q-43 21 -52 81q-31 -39 -70.5 -62.5t-75 -26.5t-64 14t-39 60t0.5 111l64 321h136q-13 -68 -39 -200t-37 -193q-11 -60 21 -58q32 3 74 56q16 20 27 41l67 354h134q-14 -74 -38 -202.5t-35 -190.5q-10 -58 22.5 -55.5
t73.5 52.5q27 33 39 69zM121 634q0 28 18.5 47t47.5 19q27 0 46.5 -19.5t19.5 -46.5q0 -28 -19.5 -47t-46.5 -19q-29 0 -47.5 19t-18.5 47zM315 634q0 27 19 46.5t47 19.5q27 0 46.5 -19.5t19.5 -46.5q0 -28 -19.5 -47t-46.5 -19q-28 0 -47 19t-19 47z" />
    <glyph glyph-name="yacute" unicode="&#xfd;" horiz-adv-x="499" 
d="M356 500h141l-75 -371q-11 -57 -21 -99t-27 -89.5t-37.5 -79t-51.5 -59.5t-68.5 -39.5t-89.5 -11t-115 18.5l95 96q16 -13 39.5 -25t48.5 -11t30 26l43 210q-33 -34 -73.5 -53.5t-77 -19.5t-65.5 19t-39 62t2 109l63 317h142q-14 -70 -40.5 -201t-38.5 -190
q-12 -60 27 -58q38 3 85 54q19 21 32 43zM318 751l107 1l-87 -191h-79z" />
    <glyph glyph-name="thorn" unicode="&#xfe;" horiz-adv-x="462" 
d="M225 470q78 51 133 29.5t84 -81t28 -132.5q-2 -106 -47 -186q-24 -46 -60 -71q-43 -35 -101 -35q-32 0 -70 13t-54 31l-56 -288h-141l180 908l149 42zM326 224q22 117 -2 180q-26 72 -108 17l-66 -326q21 -28 46 -33.5t46 6.5t38 36q32 45 46 120z" />
    <glyph glyph-name="ydieresis" unicode="&#xff;" horiz-adv-x="486" 
d="M356 500h141l-75 -371q-11 -57 -21 -99t-27 -89.5t-37.5 -79t-51.5 -59.5t-68.5 -39.5t-89.5 -11t-115 18.5l95 96q16 -13 39.5 -25t48.5 -11t30 26l43 210q-33 -34 -73.5 -53.5t-77 -19.5t-65.5 19t-39 62t2 109l63 317h142l-79 -391q-12 -60 27 -58q38 3 85 54
q19 21 32 43zM141 634q0 28 18.5 47t47.5 19q27 0 46.5 -19.5t19.5 -46.5q0 -28 -19.5 -47t-46.5 -19q-29 0 -47.5 19t-18.5 47zM335 634q0 27 19 46.5t47 19.5q27 0 46.5 -19.5t19.5 -46.5q0 -28 -19.5 -47t-46.5 -19q-28 0 -47 19t-19 47z" />
    <glyph glyph-name="Cacute" unicode="&#x106;" horiz-adv-x="564" 
d="M644 168h48q-35 -75 -110.5 -122t-160 -58t-169.5 10t-139 73q-63 59 -72.5 164.5t23.5 208t90 173.5q71 86 162 116q112 41 199 -4q78 -40 88 -126q10 -88 -55 -197l-81 130q2 4 9 14t10 15.5t7.5 14.5t6 17t1.5 16q-1 23 -15.5 35.5t-37.5 12.5q-51 0 -116 -56
q-86 -79 -124.5 -214t13.5 -233q38 -62 121.5 -89t171.5 -2t130 101zM534 999l107 1l-87 -191h-79z" />
    <glyph glyph-name="cacute" unicode="&#x107;" horiz-adv-x="349" 
d="M394 172h37q-99 -172 -258 -178q-52 -2 -90 20t-55 59.5t-22 86t7 99.5q15 78 56.5 142t105.5 90q84 35 140 -10q37 -29 45.5 -81.5t-14.5 -93.5q-2 -6 -14 -24l-46 81q16 31 17 55.5t-9 28.5q-21 14 -55 -11q-75 -54 -96 -187q-11 -75 5 -121t52 -60q86 -33 194 104z
M295 751l107 1l-87 -191h-79z" />
    <glyph glyph-name="Ccircumflex" unicode="&#x108;" horiz-adv-x="584" 
d="M644 168h48q-35 -75 -110.5 -122t-160 -58t-169.5 10t-139 73q-63 59 -72.5 164.5t23.5 208t90 173.5q71 86 162 116q112 41 199 -4q78 -40 88 -126q10 -88 -55 -197l-81 130q2 4 9 14t10 15.5t7.5 14.5t6 17t1.5 16q-1 23 -15.5 35.5t-37.5 12.5q-51 0 -116 -56
q-86 -79 -124.5 -214t13.5 -233q38 -62 121.5 -89t171.5 -2t130 101zM530 1000l86 -175l-61 -6l-59 82l-108 -86l-90 -6l179 187z" />
    <glyph glyph-name="Ccaron" unicode="&#x10c;" horiz-adv-x="569" 
d="M644 168h48q-35 -75 -110.5 -122t-160 -58t-169.5 10t-139 73q-63 59 -72.5 164.5t23.5 208t90 173.5q71 86 162 116q112 41 199 -4q78 -40 88 -126q10 -88 -55 -197l-81 130q2 4 9 14t10 15.5t7.5 14.5t6 17t1.5 16q-1 23 -15.5 35.5t-37.5 12.5q-51 0 -116 -56
q-86 -79 -124.5 -214t13.5 -233q38 -62 121.5 -89t171.5 -2t130 101zM515 834l-47 -5l-78 157l54 5l54 -75l96 78l81 6z" />
    <glyph glyph-name="ccaron" unicode="&#x10d;" horiz-adv-x="349" 
d="M394 172h37q-99 -172 -258 -178q-52 -2 -90 20t-55 59.5t-22 86t7 99.5q15 78 56.5 142t105.5 90q84 35 140 -10q37 -29 45.5 -81.5t-14.5 -93.5q-2 -6 -14 -24l-46 81q16 31 17 55.5t-9 28.5q-21 14 -55 -11q-75 -54 -96 -187q-11 -75 5 -121t52 -60q86 -33 194 104z
M300 586l-47 -5l-78 157l54 5l54 -75l96 78l81 6z" />
    <glyph glyph-name="dcroat" unicode="&#x111;" horiz-adv-x="550" 
d="M460 112q-12 -59 25 -56.5t84 52.5q29 33 42 68h41q-37 -98 -124 -150q-79 -47 -139 -22q-54 21 -59 94q-31 -46 -75.5 -73t-88 -28t-80.5 16t-57.5 60.5t-15.5 103.5q8 86 40.5 154t76 104.5t91 55t89.5 14.5t68 -26q10 -8 13 -14l23 105l-100 -31l-8 69l123 38l19 106
h136q-2 -13 -4.5 -25.5t-6.5 -35.5l64 21l9 -69l-89 -27q-96 -498 -97 -504zM337 184l44 230q-39 68 -100 33q-58 -33 -96 -132q-11 -30 -18 -62q-31 -145 16.5 -182t149.5 92q0 5 4 21z" />
    <glyph glyph-name="Ecaron" unicode="&#x11a;" horiz-adv-x="654" 
d="M733 752q-44 0 -136.5 -0.5t-120.5 -0.5q-55 0 -107 -4q-148 -16 -228 -75q-114 -91 -87 -300l135 63q-32 54 -32.5 105.5t28.5 76.5q41 37 173 49l-135 -666h353l25 88h-223l60 290h138l26 88h-147l38 197h211zM515 834l-47 -5l-78 157l54 5l54 -75l96 78l81 6z" />
    <glyph glyph-name="Nacute" unicode="&#x143;" horiz-adv-x="717" 
d="M574 242l-111 510q-115 0 -178 -12q-105 -21 -159 -71q-95 -93 -46 -298l135 63q-39 57 -48 111t18 78q30 25 106 40q14 2 20 3l-134 -666h97l102 513l105 -513h142l151 752h-97zM614 999l107 1l-87 -191h-79z" />
    <glyph glyph-name="nacute" unicode="&#x144;" horiz-adv-x="509" 
d="M611 175h-39q-19 -58 -74 -101q-50 -39 -71 -18q-14 13 -7 52q9 49 40 210q12 65 0 109t-41 61t-66 16.5t-77 -22t-72 -57.5l15 75h-137l-101 -500h142l63 332q23 58 78 96q50 35 68 10q10 -14 4 -47q-26 -140 -40 -210q-21 -127 46 -171q54 -36 131 3q86 42 131 146
q4 8 7 16zM326 751l107 1l-87 -191h-79z" />
    <glyph glyph-name="ohungarumlaut" unicode="&#x151;" 
d="M570 392l3 -34q-62 -56 -119 -82q-8 -66 -34.5 -120t-61.5 -86.5t-77 -54t-82.5 -21.5t-77.5 11q-67 24 -96 81.5t-21 130.5q9 75 51.5 143.5t110.5 107.5q36 21 76.5 30t80 5.5t73 -27t50.5 -65.5q13 -31 13 -70q58 14 111 51zM334 253v4q-47 9 -96 46l52 71
q19 -17 43 -27q-8 39 -29.5 66.5t-49.5 30.5t-57 -36q-27 -38 -44.5 -108t-10 -140t48.5 -93q18 -13 39 -6t40.5 26.5t37 63t26.5 102.5zM241 751l107 1l-87 -191h-79zM406 751l107 1l-87 -191h-79z" />
    <glyph glyph-name="Sacute" unicode="&#x15a;" horiz-adv-x="555" 
d="M565 475l-128 64q23 84 -12 122.5t-113 -0.5q-24 -15 -38.5 -43.5t-12.5 -52.5q3 -23 7 -32t17 -26q23 -32 80 -70q73 -49 99 -72q45 -41 55 -93q24 -134 -85 -219q-88 -69 -211 -72q-121 -3 -182 60q-33 35 -39 83q-7 58 20.5 114.5t82.5 83.5l90 -94q-57 -22 -83 -55.5
t-16 -64.5q12 -35 63.5 -45.5t104.5 13.5q62 29 88 96q23 60 -60 125q-17 13 -46 34.5t-46 35.5q-59 47 -85 97q-20 47 -21.5 93t26.5 89.5t80 69.5q85 43 186 34q118 -12 163.5 -86.5t15.5 -188.5zM418 999l107 1l-87 -191h-79z" />
    <glyph glyph-name="sacute" unicode="&#x15b;" horiz-adv-x="446" 
d="M291 751l107 1l-87 -191h-79zM467 331l-113 40q7 13 10.5 26t3.5 28t-10.5 24.5t-31.5 11.5q-39 7 -70 -17q-22 -9 -34.5 -27.5t-9.5 -34.5q3 -22 19 -39q28 -24 72 -48q39 -20 81 -48q35 -29 47 -62q24 -97 -75.5 -152.5t-215.5 -38.5t-130 95q-6 37 16 73.5t66 55.5
l74 -63q-45 -14 -66 -36t-11 -43q10 -25 52 -31.5t84 9.5q53 23 71 64q16 36 -49 84q-11 6 -29 15.5t-29 16t-22 15.5q-47 27 -70 66q-34 42 -18 91.5t79 74.5q67 30 151 22q120 -6 156 -85q15 -36 2 -87z" />
    <glyph glyph-name="Scaron" unicode="&#x160;" horiz-adv-x="572" 
d="M397 831l-48 -5l-77 160l54 6l54 -76l98 79l83 5zM581 492l-131 66q24 86 -12.5 126t-116.5 -1q-25 -14 -39.5 -44t-12.5 -54q3 -23 7 -32.5t17 -27.5q23 -31 83 -72q79 -53 101 -74q47 -43 57 -96q27 -150 -100.5 -236.5t-272 -61t-159.5 145.5q-7 60 21.5 118t84.5 86
l93 -97q-59 -23 -85.5 -57.5t-16.5 -66.5q12 -36 65.5 -46.5t107.5 14.5q64 29 90 98q24 62 -61 129q-18 14 -48 36t-47 36q-61 50 -87 100q-21 48 -22.5 95.5t27 92t82.5 71.5q87 44 191 35q122 -13 168.5 -89.5t15.5 -193.5z" />
    <glyph glyph-name="scaron" unicode="&#x161;" horiz-adv-x="446" 
d="M327 607l-40 -4l-67 137l48 5l44 -65l84 67l70 5zM467 331l-113 40q7 13 10.5 26t3.5 28t-10.5 24.5t-31.5 11.5q-39 7 -70 -17q-22 -9 -34.5 -27.5t-9.5 -34.5q3 -22 19 -39q28 -24 72 -48q39 -20 81 -48q35 -29 47 -62q24 -97 -75.5 -152.5t-215.5 -38.5t-130 95
q-6 37 16 73.5t66 55.5l74 -63q-45 -14 -66 -36t-11 -43q10 -25 52 -31.5t84 9.5q53 23 71 64q16 36 -49 84q-11 6 -29 15.5t-29 16t-22 15.5q-47 27 -70 66q-34 42 -18 91.5t79 74.5q67 30 151 22q120 -6 156 -85q15 -36 2 -87z" />
    <glyph glyph-name="Uhungarumlaut" unicode="&#x170;" horiz-adv-x="778" 
d="M687 752h137l-151 -752h-138l22 93q-42 -65 -117.5 -86t-144.5 22q-44 25 -59 80q-12 51 -3 136q10 77 37 197l51 226q-124 -13 -170 -48q-30 -24 -29.5 -77t32.5 -110l-135 -61q-25 200 85 294q109 87 372 87l-18 -78l-48 -230q-4 -17 -14.5 -67.5t-14.5 -72.5
q-9 -55 -12 -97q-5 -45 0 -61q18 -55 90 -21q62 30 107 93q11 14 18 28zM530 999l107 1l-87 -191h-79zM695 999l107 1l-87 -191h-79z" />
    <glyph glyph-name="uhungarumlaut" unicode="&#x171;" horiz-adv-x="470" 
d="M221 751l107 1l-87 -191h-79zM386 751l107 1l-87 -191h-79zM525 173h39q-35 -100 -119 -152q-74 -45 -129 -19q-43 21 -52 81q-31 -39 -70.5 -62.5t-75 -26.5t-64 14t-39 60t0.5 111l64 321h136q-13 -68 -39 -200t-37 -193q-11 -60 21 -58q32 3 74 56q16 20 27 41
q1 2 67 354h134q-14 -74 -38 -202.5t-35 -190.5q-10 -58 22.5 -55.5t73.5 52.5q27 33 39 69z" />
    <glyph glyph-name="Ydieresis" unicode="&#x178;" horiz-adv-x="778" 
d="M162 433l-135 -61q-19 103 -3 175t61 116q60 53 156.5 71t227.5 18l-57 -253q-13 -63 -25.5 -145t-5.5 -99q11 -26 40.5 -27t62 16t62 43t43.5 50l88 415h136q-113 -565 -142 -690t-59 -167q-25 -34 -56 -57q-91 -64 -191.5 -39t-144.5 126q17 12 100 78q32 -100 88 -120
q76 -19 114 96q14 47 47 232q-38 -45 -104.5 -64.5t-128.5 0t-83 77.5q-9 31 -9.5 68.5t3 61t13 73t13.5 70.5l41 173q-129 -9 -178 -52q-25 -24 -17 -78t43 -107zM427 884q0 28 18.5 47t47.5 19q27 0 46.5 -19.5t19.5 -46.5q0 -28 -19.5 -47t-46.5 -19q-29 0 -47.5 19
t-18.5 47zM621 884q0 27 19 46.5t47 19.5q27 0 46.5 -19.5t19.5 -46.5q0 -28 -19.5 -47t-46.5 -19q-28 0 -47 19t-19 47z" />
    <glyph glyph-name="Zacute" unicode="&#x179;" horiz-adv-x="598" 
d="M454 999l107 1l-87 -191h-79zM646 752h-445l-46 -76h291q-55 -82 -208 -317.5t-240 -359.5q96 18 186.5 27t185.5 4t150 -29l90 103q-76 33 -190 32t-199 -31z" />
    <glyph glyph-name="zacute" unicode="&#x17a;" horiz-adv-x="429" 
d="M457 500h-340l-21 -54h178l-260 -446l20 4q165 34 334 -3l81 65q-50 24 -113.5 30t-120.5 -8zM291 751l107 1l-87 -191h-79z" />
    <glyph glyph-name="Zcaron" unicode="&#x17d;" horiz-adv-x="608" 
d="M515 834l-125 152l54 5l54 -75l96 78l81 6zM646 752h-445l-46 -76h291q-55 -82 -208 -317.5t-240 -359.5q96 18 186.5 27t185.5 4t150 -29l90 103q-76 33 -190 32t-199 -31z" />
    <glyph glyph-name="zcaron" unicode="&#x17e;" horiz-adv-x="424" 
d="M457 500h-340l-21 -54h178l-260 -446l20 4q165 34 334 -3l81 65q-50 24 -113.5 30t-120.5 -8zM327 607l-40 -4l-67 137l48 5l44 -65l84 67l70 5z" />
    <glyph glyph-name="caron" unicode="&#x2c7;" horiz-adv-x="267" 
d="M158 561l-86 175l61 6l59 -83l107 86l91 6l-178 -185z" />
    <glyph glyph-name="breve" unicode="&#x2d8;" horiz-adv-x="429" 
d="M353 703h76q-2 -148 -208 -148q-72 0 -114.5 32t-42.5 93q0 7 2 23h79q-2 -14 -2 -18q0 -78 96 -78q104 0 114 96z" />
    <glyph glyph-name="tilde" unicode="&#x2dc;" horiz-adv-x="403" 
d="M427 672l12 -2q-4 -17 -19 -36q-16 -17 -37 -31q-22 -15 -50 -24q-32 -9 -55 -9q-26 0 -47 6q-28 8 -41 13q-24 7 -40 13q-22 5 -41 5q-5 0 -9 -0.5t-7 -1.5t-6.5 -3t-5.5 -3t-5.5 -4.5l-5 -5t-6 -6.5t-6.5 -7l-21 7q23 46 67 73q43 25 101 25q29 0 48 -5q14 -3 40 -11
q8 -3 21 -7t16 -5q14 -5 40 -5q18 0 35 6q15 5 22 18z" />
    <glyph glyph-name="hungarumlaut" unicode="&#x2dd;" horiz-adv-x="436" 
d="M180 752h107l-86 -190h-79zM322 752h107l-86 -190h-79z" />
    <glyph glyph-name="endash" unicode="&#x2013;" horiz-adv-x="393" 
d="M310 300l-17 -80h-215l18 80h214z" />
    <glyph glyph-name="emdash" unicode="&#x2014;" horiz-adv-x="488" 
d="M425 300l-27 -80h-343l29 80h341z" />
    <glyph glyph-name="quoteleft" unicode="&#x2018;" horiz-adv-x="190" 
d="M108 517q-23 9 -32.5 34.5t-3 57.5t22.5 62.5t46.5 52t67.5 23.5l7 -31q-33 -2 -48 -16.5t-28 -46.5q9 -2 18 -5q27 -10 39 -36.5t2 -53.5q-10 -28 -36.5 -39.5t-54.5 -1.5z" />
    <glyph glyph-name="quoteright" unicode="&#x2019;" horiz-adv-x="175" 
d="M176 742q23 -9 32.5 -34.5t3 -57.5t-22.5 -62.5t-46.5 -52t-67.5 -23.5l-7 31q33 2 48 16.5t28 46.5q-9 2 -18 5q-27 10 -39 36.5t-2 53.5q10 28 36.5 39.5t54.5 1.5z" />
    <glyph glyph-name="quotesinglbase" unicode="&#x201a;" horiz-adv-x="220" 
d="M79 136q24 -9 33.5 -34.5t3.5 -57.5t-22.5 -62.5t-47 -52t-67.5 -23.5l-7 32q32 1 47.5 15.5t28.5 46.5q-34 2 -53 32.5t-7 62.5q10 28 37 40t54 1z" />
    <glyph glyph-name="quotedblleft" unicode="&#x201c;" horiz-adv-x="410" 
d="M114 518q-23 9 -32.5 34.5t-3 57.5t22.5 62.5t46.5 52t67.5 23.5l7 -31q-33 -2 -48 -16.5t-28 -46.5q9 -2 18 -5q27 -10 39 -36.5t2 -53.5q-10 -28 -36.5 -39.5t-54.5 -1.5zM328 518q-23 9 -32.5 34.5t-3 57.5t22.5 62.5t46.5 52t67.5 23.5l7 -31q-33 -2 -48 -16.5
t-28 -46.5q9 -2 18 -5q27 -10 39 -36.5t2 -53.5q-10 -28 -36.5 -39.5t-54.5 -1.5z" />
    <glyph glyph-name="quotedblright" unicode="&#x201d;" horiz-adv-x="411" 
d="M398 743q23 -9 32.5 -34.5t3 -57.5t-22.5 -62.5t-46.5 -52t-67.5 -23.5l-7 31q33 2 48 16.5t28 46.5q-9 2 -18 5q-27 10 -39 36.5t-2 53.5q10 28 36.5 39.5t54.5 1.5zM184 743q23 -9 32.5 -34.5t3 -57.5t-22.5 -62.5t-46.5 -52t-67.5 -23.5l-7 31q33 2 48 16.5t28 46.5
q-9 2 -18 5q-27 10 -39 36.5t-2 53.5q10 28 36.5 39.5t54.5 1.5z" />
    <glyph glyph-name="quotedblbase" unicode="&#x201e;" horiz-adv-x="440" 
d="M83 139q24 -9 34 -35.5t3.5 -59.5t-23 -64t-48 -53t-69.5 -23l-7 32q34 1 49.5 15.5t28.5 48.5q-9 0 -19 5q-28 11 -40 38t-1 55q10 28 37 40t55 1zM295 139q24 -9 33.5 -35.5t3 -59.5t-23 -64t-48 -53t-69.5 -23l-7 32q33 1 49 15.5t30 48.5q-8 0 -20 5q-28 11 -40 38
t-2 55q11 28 38.5 40t55.5 1z" />
    <glyph glyph-name="dagger" unicode="&#x2020;" horiz-adv-x="411" 
d="M259 429h152l-23 -111h-152l-121 -568h-71l120 568h-146l24 111h146l67 323h74z" />
    <glyph glyph-name="daggerdbl" unicode="&#x2021;" horiz-adv-x="430" 
d="M399 318h-150l-22 -105h151l-23 -112h-153l-74 -351h-72l74 351h-144l24 112h144l22 105h-146l24 111h144l70 323h73l-69 -323h150z" />
    <glyph glyph-name="bullet" unicode="&#x2022;" horiz-adv-x="283" 
d="M47 269q0 37 26 66q29 27 66 27t66 -27q27 -29 27 -66t-27 -66q-29 -26 -66 -26t-66 26q-26 29 -26 66z" />
    <glyph glyph-name="ellipsis" unicode="&#x2026;" horiz-adv-x="720" 
d="M604 131q24 -24 24 -56q0 -33 -24 -55q-24 -24 -56 -24q-34 0 -56 24q-23 23 -23 55q0 31 23 56q22 24 56 24q32 0 56 -24zM69 155q32 0 56 -24t24 -56q0 -33 -24 -55q-24 -24 -56 -24t-55 24q-24 22 -24 55q0 32 24 56q23 24 55 24zM303 155q33 0 57 -24q23 -23 23 -56
t-23 -55q-24 -24 -57 -24t-55 24q-23 22 -23 55t23 56q22 24 55 24z" />
    <glyph glyph-name="perthousand" unicode="&#x2030;" horiz-adv-x="912" 
d="M290 112q3 104 61 160t122 49t87 -64q10 -21 8 -50q-3 -103 -61 -159.5t-122 -49.5t-87 64q-9 24 -8 50zM488 161q12 65 -19 103q-26 33 -55 7q-30 -28 -44 -111q-6 -34 1 -66q23 -75 60 -51q35 22 53 97q2 10 4 21zM871 257q10 -25 7 -50q-2 -103 -60 -159.5t-122 -49.5
t-87 64q-9 21 -8 50q3 104 61 160t122 49t87 -64zM801 161q10 64 -20 102q-26 33 -55 8q-31 -26 -45 -111q-7 -35 2 -66q20 -73 57 -52q35 19 55 91q4 14 6 28zM308 579q-2 -104 -60 -160t-122 -49t-87 63q-8 19 -8 49q3 104 61 161t122 50t87 -64q8 -25 7 -50zM112 466
q21 -75 59 -52q34 20 54 92q3 12 5 24q10 66 -20 105q-25 33 -54 8q-32 -26 -46 -113q-6 -38 2 -64zM467 752h73l-386 -753h-73z" />
    <glyph glyph-name="guilsinglleft" unicode="&#x2039;" horiz-adv-x="308" 
d="M274 409l-180 -155l141 -144l-41 -45l-185 190l222 201z" />
    <glyph glyph-name="guilsinglright" unicode="&#x203a;" horiz-adv-x="335" 
d="M42 101l180 155l-141 144l41 45l185 -190l-222 -201z" />
    <glyph glyph-name="Euro" unicode="&#x20ac;" horiz-adv-x="671" 
d="M519 64q68 12 119 66l12 -47q-45 -42 -96 -61q-42 -17 -91 -25q-76 -11 -150.5 9t-125.5 70q-78 74 -73 218h-91l34 49h60q3 23 9 48h-103l34 46h81q30 106 91 182q69 85 160 115q110 40 198 -5q76 -36 85 -124q11 -88 -52 -198l-101 100q6 9 23 30.5t23.5 37.5t6.5 39
q0 22 -14.5 34.5t-37.5 12.5q-55 -2 -114 -55q-70 -66 -109 -169h173l-33 -46h-157q-1 -5 -5 -22t-6 -26h201l-33 -49h-171q-3 -80 29 -131q48 -80 149 -98q38 -7 75 -1z" />
    <glyph glyph-name="trademark" unicode="&#x2122;" horiz-adv-x="498" 
d="M472 658h38l-45 -225h-41l30 139l-79 -139h-37l15 138l-64 -138h-29l93 201q-74 -11 -48 -59l-37 -28q-9 91 77 109q4 1 60 3l-17 -148zM291 659q-26 -30 -51.5 -37t-52.5 2l-40 -191h-42l42 198q-41 6 -58 -8t-3 -50l-37 -26q-3 34 3 57.5t18 35t31.5 16t37 3.5t40.5 -6
q76 -17 96 6h16z" />
    <glyph glyph-name="minus" unicode="&#x2212;" horiz-adv-x="471" 
d="M425 300l-28 -82h-353l30 82h351z" />
    <glyph glyph-name="ff" unicode="&#xfb00;" horiz-adv-x="512" 
d="M521 660l-4 -17l-28 -144h81l-29 -61h-65l-137 -687h-147q100 490 142 687h-36h-65l-139 -687h-144q30 155 139 687h-64l27 61h51q67 239 225 251q40 0 63 -2q48 -6 96 -21q37 20 84 23q41 0 64 -2q38 -5 104 -23l-102 -105q-59 47 -83 48q-11 3 -33 -8zM349 499
q25 89 41 124q-61 44 -78 45q-13 3 -35 -8l-2 -17l-29 -144h49h31h23z" />
    <glyph glyph-name="i_x.end" horiz-adv-x="720" 
d="M774 178h44q-1 -45 -22 -83t-53 -61t-71 -33t-74.5 -4.5t-64.5 29.5t-41 64l-19 63l-136 -153h-71q9 11 78.5 88.5t110.5 123.5l-83 288h27h119l43 -150l132 150h70l-184 -208l59 -209q12 -45 55 -28q40 16 66 64q15 30 15 59zM151 109q-9 -49 14.5 -57t68.5 14
q2 -2 9 -11t11 -13q-34 -26 -71.5 -38.5t-70.5 -9t-57.5 24.5t-33 62t2.5 102l66 317h140q-17 -85 -42.5 -208.5t-36.5 -182.5zM182 714q33 0 57 -24q21 -21 21 -55q0 -32 -24 -56q-26 -24 -57 -24t-55 24q-23 23 -22 56q0 33 24 55q23 24 56 24z" />
    <glyph glyph-name="p.2" horiz-adv-x="513" 
d="M478 277q87 19 96 20l-13 -61q-8 -1 -48.5 -9t-41.5 -9q-9 -57 -37 -109q-11 -20 -21 -30q-2 -5 -7.5 -12t-6.5 -8q-34 -41 -88 -58.5t-96.5 0.5t-42.5 71q0 30 13 53q13 26 35 44q15 15 52 36q38 20 65 30q19 88 3 155q-22 95 -111 35q-82 -405 -135 -675h-138l150 750
h137l-4 -26q80 47 135.5 22t84.5 -89.5t19 -129.5zM259 131q-40 -35 -23 -50q14 -13 44 5q41 25 48 85q-56 -28 -69 -40z" />
    <glyph glyph-name="a.1" horiz-adv-x="615" 
d="M615 173q101 0 146.5 -67.5t29.5 -160.5q-9 -49 -37.5 -98.5t-66.5 -76.5q-85 -59 -261 -74.5t-445 -2.5q-60 3 -215 11t-229.5 11t-220 8.5t-234.5 5t-222 -2t-232.5 -10t-217 -21.5t-224.5 -34t-209 -49l-162 183q153 51 371.5 77t421.5 29.5t466 -8.5t431 -25.5
t390 -33.5q35 -3 52 -5q182 -16 285.5 -23t211.5 -7.5t164 11.5q111 22 106 135q-1 50 -33 86.5t-86 46.5q-48 -53 -107.5 -74.5t-104.5 2t-50 90.5q-38 -58 -96 -83.5t-108 -16.5t-83.5 56t-27.5 121q5 63 23.5 118.5t50.5 102.5t83 75t116 29h248l-7 -35
q-16 -83 -40 -194.5t-34 -159.5q-11 -58 27.5 -56t85.5 52q31 33 44 68zM338 179l46 230q-38 67 -98 33q-58 -33 -96 -131q-11 -30 -18 -62q-30 -144 16.5 -181t147.5 92q0 3 0.5 9.5t1.5 9.5z" />
    <glyph glyph-name="a.2" horiz-adv-x="755" 
d="M577 720q74 -29 127 -73.5t82 -103.5t22 -136t-53 -162q-66 -121 -179 -196q-108 -73 -181 -52q-60 18 -69 98q-30 -46 -74.5 -73.5t-87.5 -28.5t-80 16t-57 60t-15 103q4 50 16 95t34.5 87.5t52.5 73.5t73.5 50.5t95.5 21.5h251l-8 -38q-16 -80 -39.5 -191.5
t-33.5 -164.5q-11 -53 30 -52q48 2 117 67q46 45 78 100q53 89 50 165t-44 132t-115 93q-119 63 -295 50l50 105h8q136 -3 244 -46zM333 178l47 229q-38 67 -99 35q-57 -30 -95 -125q-13 -33 -21 -69q-30 -144 17 -181t147 93q2 6 4 18z" />
    <glyph glyph-name="b.1" horiz-adv-x="478" 
d="M460 399q25 -84 -9 -187q-17 -58 -40 -98.5t-47 -63.5t-58.5 -35t-64.5 -15.5t-74 -3.5h-105h-59q85 430 114 563q-109 10 -206 43.5t-112 79.5l30 96q37 -43 125 -92.5t175 -71.5q35 153 106 175q47 15 84 -31q38 -46 25 -102q-16 -64 -94 -90q-2 -11 -6.5 -38t-6.5 -42
q35 20 77 20q63 0 102 -34q30 -29 44 -73zM256 606zM347 275q8 75 -14 120q-14 31 -41.5 41t-65.5 -7l-70 -349q35 -29 64.5 -24.5t51 25t37.5 56.5t25 71t13 67z" />
    <glyph glyph-name="b.2" horiz-adv-x="475" 
d="M456 401q26 -82 -8 -186q-17 -58 -40 -98t-46.5 -63t-57.5 -35t-64 -15.5t-74 -3.5h-104h-59q41 215 99 489l12 64q-45 2 -103 11.5t-97.5 18t-104 24t-83.5 19.5q-271 58 -409 18l129 144q123 -3 288 -57q35 -11 116 -42.5t149 -53.5t127 -31l5 22q36 144 105 162
q47 12 83 -33q37 -48 22 -103q-15 -62 -92 -86q-5 -27 -15 -79q40 19 79 19q61 0 100 -34q29 -25 43 -71zM254 605zM344 276q9 74 -13 120q-15 31 -41.5 41t-66.5 -8l-68 -345q35 -29 64 -24.5t50.5 24.5t37.5 56t24.5 70t12.5 66z" />
    <glyph glyph-name="c.1" horiz-adv-x="499" 
d="M469 170q64 -23 91 -82.5t15 -130.5q-8 -49 -36.5 -98.5t-67.5 -76.5q-75 -52 -232 -70.5t-357.5 -10.5t-433.5 25.5t-480.5 31t-477 12.5t-444.5 -36t-363 -109l48 210q108 45 271 68.5t344 24.5t389.5 -7.5t407.5 -27.5t398 -36t360 -32t294 -16t200 12q106 22 104 134
q-2 73 -64 111q-24 13 -61 21q-86 -88 -193 -92q-103 -4 -143.5 74t-17.5 190q15 79 56.5 142t106.5 89q39 17 75.5 14.5t61.5 -22.5q37 -30 42.5 -83t-18.5 -94q-2 -4 -6.5 -11.5t-7.5 -11.5l-45 81q16 31 20 54.5t-4 27.5q-23 16 -56 -10q-39 -27 -63 -80t-32 -108
q-12 -72 4.5 -118t52.5 -61q50 -19 109 19.5t84 92.5q36 0 69 -10z" />
    <glyph glyph-name="d.1" horiz-adv-x="564" 
d="M611 174h39q-37 -99 -124 -150q-79 -47 -139 -23q-53 22 -59 95q-38 -58 -96 -83.5t-108.5 -16.5t-83.5 56.5t-27 122.5q8 87 40 154.5t76 104.5t91.5 55.5t89.5 14.5t68 -25q6 -5 14 -15q2 8 9 44.5t12 56.5q-101 9 -194.5 38.5t-120.5 70.5l17 122q28 -43 122.5 -98
t187.5 -77q35 157 109 178q48 13 85 -33q38 -48 24 -105q-16 -64 -95 -89q-15 -85 -46 -242t-43 -221q-12 -59 25.5 -57t83.5 53q31 33 43 69zM554 612zM333 162l49 250q-40 69 -102 34q-58 -33 -95 -131q-12 -30 -19 -63q-30 -146 17.5 -183.5t149.5 93.5z" />
    <glyph glyph-name="d.2" horiz-adv-x="566" 
d="M616 174l41 1q-37 -99 -125 -152q-80 -47 -140 -22q-54 22 -60 96q-26 -39 -62 -64.5t-72.5 -34t-71.5 -1.5t-61.5 28t-40.5 60t-10 90q7 87 39 155t76 105t92.5 56t91.5 15t69 -26q4 -4 14 -15q2 9 5.5 27t5.5 27l10 42q-100 2 -228.5 18.5t-241.5 34t-231 31.5t-235 13
t-216 -23l69 139q5 2 29 4q133 5 285.5 -13.5t269 -45t263.5 -55.5t252 -39l9 44q38 124 105 135q47 8 81 -40q36 -50 18 -107q-18 -59 -94 -84q-28 -162 -89 -464q-11 -58 26 -57t83 51q31 35 44 71zM558 615zM336 162l50 252q-40 69 -102 34q-59 -32 -97 -130
q-13 -31 -20 -65q-30 -147 18 -184.5t151 93.5z" />
    <glyph glyph-name="d.3" horiz-adv-x="683" 
d="M682 176q67 -22 95.5 -84.5t14.5 -136.5q-9 -48 -39 -99.5t-68 -78.5q-45 -32 -115.5 -52t-168 -27t-196.5 -8t-237 6.5t-250.5 15.5t-276 19.5t-277.5 18.5q-175 10 -304 13.5t-298 -2t-306 -24.5t-290 -60t-286 -102l65 222q143 47 284 76t259 42t268 13t264 -5.5
t295 -18.5q139 -9 312.5 -24t306.5 -28t277.5 -25t250.5 -18t198.5 -4.5t145.5 12.5q109 22 109 138q-5 72 -69 113q-5 4 -49 21q-47 -57 -108 -82t-108 -2t-52 93q-32 -46 -76.5 -73t-87.5 -28t-80 16t-57 60t-14 102q7 86 39 153.5t75.5 104t91.5 55t90 15t68 -24.5
q2 -2 4 -4.5t5 -6.5t5 -6q2 17 8.5 49.5t8.5 46.5q-38 2 -79 7t-90.5 14.5t-77 15.5t-83.5 19.5t-65 15.5q-141 33 -244 37l67 117q102 -16 186 -46q26 -9 115 -43t156 -55.5t127 -30.5l4 23q36 146 107 164q47 11 82 -34q37 -49 23 -105q-17 -62 -95 -87q-33 -198 -88 -460
q-10 -57 27 -55t82 51q32 34 44 70l5 13q41 0 70 -12zM550 608zM332 182l50 227q-39 70 -101 37q-57 -30 -95 -123q-13 -34 -21 -70q-9 -46 -10 -84t6 -63.5t22 -36.5t36 -6.5t50 29.5t62 70q1 8 1 20z" />
    <glyph glyph-name="e.1" horiz-adv-x="509" 
d="M132 764q113 -8 207 -45.5t154.5 -103.5t67.5 -157t-53 -205q-77 -140 -197 -217q-72 -44 -143 -41q-68 2 -108 43t-47.5 100.5t8 126.5t50.5 122q27 43 64.5 71.5t74 39t69.5 6.5t55 -22q35 -29 39.5 -81t-19.5 -92q-32 -60 -88.5 -87.5t-124.5 -24.5q0 -40 15.5 -75.5
t45.5 -50.5q72 -35 160 62q35 36 71 97q76 140 36.5 240t-159 152.5t-272.5 41.5zM146 253q-2 -6 -2 -10q45 -1 79 18t50.5 47t24.5 57.5t6 52.5t-10 29q-16 12 -45.5 -4t-55.5 -57q-35 -54 -47 -133z" />
    <glyph glyph-name="e.2" horiz-adv-x="376" 
d="M471 169q64 -23 92 -83.5t15 -131.5q-8 -49 -37 -99t-68 -76q-76 -52 -234.5 -70.5t-361 -10.5t-438 25.5t-485 31t-480.5 12t-447 -38t-363 -112.5l53 215q107 46 271 69.5t345.5 25t391.5 -7t410.5 -27.5t400.5 -36t362 -32t296 -16.5t202 11.5q108 24 105 135
q-2 71 -65 112q-28 15 -61 20q-96 -96 -206 -93q-68 2 -108.5 43t-48 101t7.5 127.5t51 123.5q27 43 64.5 71.5t73.5 39t69.5 6.5t55.5 -22q36 -29 40.5 -81t-19.5 -94q-32 -60 -89 -87.5t-126 -24.5q1 -41 16 -76.5t46 -49.5q52 -25 119 20.5t82 88.5q30 0 68 -9zM145 252
q0 -2 -0.5 -6t-0.5 -5q45 -1 79 17.5t50.5 47.5t24.5 59t6 53t-10 29q-15 12 -45 -4t-56 -57q-36 -57 -48 -134z" />
    <glyph glyph-name="f.1" horiz-adv-x="294" 
d="M1453 -151q80 7 142 23l-95 -173q-191 -13 -399.5 13.5t-463.5 78.5q-405 85 -516 80q-22 -87 -41 -115q-27 -38 -48 -51q-23 -19 -51 -27q-27 -6 -52 -6q-22 0 -40 7q-23 11 -32 24q-13 11 -24 34q-8 20 -6 44q6 69 51 101t121 46q34 169 107 514h-62l24 58h52
q12 43 26 77t35 67.5t48.5 55t63 35t82.5 13t102 -16.5l-92 -95q-36 28 -55 33t-40 -7l-3 -16l-29 -146h78l-27 -58h-64q-42 -217 -107 -507q197 9 468 -34q542 -82 847 -52zM-20 -159q1 6 5 23q-36 -1 -71 -18.5t-33 -49.5q2 -15 9 -23q11 -11 26 -11t32 17q21 23 32 62z
" />
    <glyph glyph-name="g.1" horiz-adv-x="518" 
d="M429 -16q78 -1 172.5 -16.5t149 -29t167.5 -42.5l-137 -81q-6 1 -12 6q-16 6 -70.5 27t-74 27.5t-61 19t-76 17.5t-73.5 7q-22 -83 -44 -117q-21 -33 -46 -54q-28 -20 -52 -25q-24 -6 -49 -6q-22 0 -40 7q-24 12 -33 23q-14 12 -22 35q-8 16 -6 44q10 121 171 151l20 98
q-40 -50 -95 -69t-102.5 -7.5t-78 57.5t-24.5 117q7 81 32.5 144.5t62 101t75.5 57t78 21.5l54 3h140h80q-73 -370 -106 -516zM241 -176q25 25 37 91q-33 -1 -69 -22.5t-34 -51.5q2 -15 9 -23q10 -11 25 -11q10 0 32 17zM330 161l49 245q-37 68 -98 37q-57 -30 -94 -124
q-13 -34 -21 -70q-30 -144 17 -180.5t147 92.5z" />
    <glyph glyph-name="g.2" horiz-adv-x="513" 
d="M433 -6q150 34 275 46l-80 -118q-20 0 -55 1.5t-56 2t-50 -1t-54 -6.5q-25 -93 -42 -119q-24 -34 -47 -51q-31 -21 -51 -26q-36 -6 -50 -6q-20 0 -41 7q-15 6 -33 24q-17 17 -22 33q-9 21 -6 45q1 18 6.5 33t11.5 26t18 21.5t20.5 16.5t26 13.5t26 10.5t30 10t29.5 10
l24 110q-39 -50 -94.5 -69.5t-103 -8t-78.5 57.5t-25 117q7 81 33 145t62 101.5t75.5 57.5t78.5 22q36 2 53 2h139h82q-62 -324 -102 -507zM239 -177q27 23 36 77q-5 -1 -20 -4.5t-23.5 -5.5t-21 -6.5t-19.5 -10t-12 -14.5t-5 -20q0 -12 9 -21q8 -11 26 -11q15 0 30 16z
M330 161l50 246q-38 69 -99 36q-57 -31 -95 -126q-13 -33 -20 -68q-17 -71 -10.5 -116.5t26 -65t59 4t89.5 89.5z" />
    <glyph glyph-name="g.3" horiz-adv-x="516" 
d="M1729 -110q88 9 140 24l-102 -172q-187 -11 -391.5 15t-451.5 76q-46 9 -127 26t-124 25.5t-99 18.5t-94 13.5t-66 2.5q-25 -94 -43 -120q-21 -34 -47 -53q-23 -16 -51 -25q-25 -6 -49 -6q-23 0 -41 7q-21 9 -34 23q-17 21 -21 35q-9 23 -6 44q6 68 51.5 102.5
t118.5 48.5q3 16 10 50t11 50q-39 -50 -94.5 -69.5t-103 -8.5t-78 57.5t-24.5 117.5q6 81 32 145.5t62 102t75.5 57.5t78.5 21q36 2 53 2h141h83q-13 -62 -49 -241.5t-59 -276.5q145 8 462 -39q527 -82 837 -53zM271 -116q2 9 3.5 13.5t4.5 16.5q-34 -2 -70 -23.5t-35 -52.5
q2 -12 10 -22q9 -11 26 -11q12 0 31 16q17 18 30 63zM329 159l51 248q-38 69 -100 35q-58 -32 -95 -129q-12 -31 -19 -64q-30 -144 17 -181.5t146 91.5z" />
    <glyph glyph-name="h.1" horiz-adv-x="522" 
d="M584 173h40q-40 -113 -134 -159q-77 -38 -138 -9q-63 30 -56 110q0 9 2 18q18 98 46 258q11 61 -22.5 58t-75.5 -56q-16 -20 -28 -42l-70 -351h-139q5 24 46.5 231.5t65.5 316.5q-113 10 -211.5 45t-108.5 83l27 98q30 -44 121.5 -96t183.5 -75q34 153 106 175
q48 15 85 -30q39 -47 27 -103q-13 -65 -93 -91q-19 -99 -23 -120q32 34 69.5 53t71.5 19t60 -19t35 -61t-2 -108q-17 -100 -38 -212q-11 -59 26.5 -57.5t83.5 52.5q31 35 43 72zM263 595z" />
    <glyph glyph-name="h.2" horiz-adv-x="520" 
d="M575 173h40q-41 -113 -136 -159q-78 -37 -139 -8q-62 30 -54 111q0 8 2 16q41 225 47 257q12 60 -21 58t-76 -55q-17 -20 -28 -43l-70 -350h-140l112 552q-59 3 -124.5 14t-163 33.5t-106.5 24.5q-268 59 -404 20l38 141h2q158 19 374 -53q34 -11 116.5 -43.5t151 -54.5
t128.5 -31l5 21q36 147 108 165q47 12 83 -34q37 -48 22 -103q-18 -61 -93 -85q-22 -126 -24 -134q32 34 70 53.5t71.5 20t60 -18.5t36 -61t-0.5 -108q-8 -41 -21.5 -116t-17.5 -97q-11 -59 26 -57t83 53q31 34 43 71zM256 606z" />
    <glyph glyph-name="h.3" horiz-adv-x="705" 
d="M639 174q67 -22 95 -82.5t15 -136.5q-7 -48 -36 -99t-68 -79q-77 -53 -238 -71.5t-366.5 -10.5t-444.5 26.5t-492.5 31.5t-488.5 12t-455.5 -38t-371.5 -114l54 222q110 46 276.5 69.5t351.5 24t398.5 -8.5t416.5 -28.5t406 -37t367.5 -33t300.5 -16.5t205 12
q109 27 108 137q-1 35 -18.5 66t-47.5 48q-22 12 -48 19q-52 -68 -124 -87t-119 18t-33 115q30 160 46 256q12 61 -21 58q-33 -2 -79 -57q-15 -20 -27 -40l-68 -350h-140l112 550q-59 3 -123.5 14t-161.5 34.5t-106 25.5q-82 16 -143.5 24.5t-135.5 8.5t-131 -16l38 141h4
l3 1q160 19 373 -52q36 -12 117 -44t149 -54.5t128 -30.5l6 22q35 147 108 164q47 11 84 -36q37 -49 22 -104q-16 -60 -91 -84q-16 -86 -26 -131q32 34 69.5 53t71 19.5t60 -18.5t36 -61t-1.5 -108q-5 -31 -19.5 -102.5t-20.5 -108.5q-11 -59 26 -57t84 52q31 34 43 69l3 14
q34 0 69 -11zM251 605z" />
    <glyph glyph-name="j.1" horiz-adv-x="259" 
d="M183 556q-33 0 -53 22q-22 22 -22 56q2 33 23 56q23 23 56 23t55 -23q23 -23 23 -56q-2 -34 -25 -56q-25 -22 -57 -22zM137 -4q182 -3 485 -86l-118 -88q-15 6 -18 7q-18 7 -72 27.5t-75.5 28t-63 20t-77.5 18t-76 8.5q-25 -92 -46 -121q-18 -31 -47 -55q-25 -19 -53 -25
q-24 -6 -50 -6q-24 0 -42 7q-17 7 -34 22q-16 21 -22 36q-8 23 -6 45q10 126 175 156q17 84 50 250.5t52 259.5h136q-63 -352 -98 -504zM-56 -168q27 27 39 93q-34 -1 -71 -22.5t-35 -53.5q0 -12 7 -22q10 -11 28 -11q13 0 32 16z" />
    <glyph glyph-name="j.2" horiz-adv-x="264" 
d="M148 -5q160 36 290 48l-74 -124h-2q-19 0 -74 2.5t-90 1t-70 -7.5q-23 -91 -44 -123q-23 -35 -49 -54q-30 -22 -53 -27q-27 -6 -51 -6q-25 0 -43 7q-22 8 -35 24q-12 11 -23 36q-8 21 -6 46q2 21 7.5 38.5t17.5 31t20.5 22t29.5 18t30.5 13.5t36 13.5t34.5 12.5
q22 104 58 288t49 250h140q-98 -503 -99 -510zM-52 -184q26 24 37 79q-6 -1 -21.5 -4t-24.5 -5.5t-22.5 -7t-20.5 -10t-12.5 -15t-4.5 -20.5q0 -11 9 -23q10 -12 28 -12q14 0 32 18zM193 553q-35 0 -57 24q-23 21 -21 55q0 32 23 58q23 23 58 23q34 0 57 -23q22 -25 22 -58
t-25 -55q-24 -24 -57 -24z" />
    <glyph glyph-name="k.1" horiz-adv-x="434" 
d="M337 489q63 38 97 -1q32 -36 12 -103q-26 -89 -128 -145q-17 -10 -36 -18l142 -222h-143l-110 174l-33 -174h-139q7 36 47 242.5t64 312.5q-105 9 -199.5 41t-114.5 75l31 97q37 -43 123 -90.5t171 -68.5q35 153 107 174q48 13 85 -33q37 -47 23 -103q-15 -61 -89 -86
q-9 -50 -19 -96.5t-21 -108.5q70 97 130 133zM250 601zM211 239q93 40 140 121q32 54 19 77q-9 15 -35 0q-11 -6 -24.5 -18.5t-24.5 -24t-27.5 -32t-24.5 -30.5t-24.5 -32t-18.5 -25l-8 -48q5 2 14 5.5t14 6.5z" />
    <glyph glyph-name="k.2" horiz-adv-x="427" 
d="M278 221h1l140 -221h-141l-111 173l-31 -173h-140q72 364 109 546q-58 3 -123 14.5t-159 33.5t-106 25q-270 58 -407 18l45 140q156 19 370 -52q33 -11 115 -42.5t150 -53.5t127 -31l4 21q36 144 107 163q47 12 83 -34q38 -48 22 -104q-16 -60 -91 -84q-6 -34 -19 -102
t-19 -102q68 96 129 132q63 38 97 -1q32 -36 12 -103q-26 -89 -128 -145q-17 -10 -36 -18zM248 601zM208 238q92 40 139 121q32 54 19 77q-9 15 -35 0q-41 -23 -143 -162l-10 -47q29 11 30 11z" />
    <glyph glyph-name="l.1" horiz-adv-x="245" 
d="M281 171h38q-36 -98 -122 -149q-78 -46 -136 -19q-69 31 -55 147l5 28q48 256 73 366q-109 10 -207 45.5t-107 81.5l30 91q32 -43 121 -93t175 -69q34 151 106 172q47 13 84 -32q38 -47 25 -103q-14 -61 -88 -87q-10 -51 -29 -139.5t-34.5 -163.5t-27.5 -141
q-11 -57 25.5 -54.5t81.5 51.5q30 33 42 68zM225 591z" />
    <glyph glyph-name="l.2" horiz-adv-x="249" 
d="M287 172h39q-36 -98 -122 -149q-77 -46 -136 -21q-70 30 -57 143l5 33q48 240 73 361q-58 3 -123 14.5t-159.5 34t-105.5 24.5q-81 17 -143.5 26t-136.5 8t-131 -18l46 140q1 1 5 1q158 19 368 -52q36 -12 115.5 -42.5t148 -53t126.5 -30.5l5 21q35 144 106 162
q47 12 83 -34q38 -47 24 -102q-16 -60 -92 -85q-16 -87 -48.5 -248.5t-39.5 -198.5q-11 -57 25.5 -55t81.5 51q31 34 43 70zM231 593z" />
    <glyph glyph-name="l.3" horiz-adv-x="244" 
d="M289 172h39q-36 -98 -123 -149q-78 -46 -137 -20q-71 31 -57 147q2 14 5 29q51 256 57 285q4 22 7 32q-104 -40 -179 -63q1 3 46 101q20 3 146 26l17 68q35 132 102 147q46 10 81 -37q37 -50 23 -106q-16 -60 -89 -84q-14 -75 -44.5 -221t-44.5 -220q-12 -58 26 -55.5
t83 52.5q30 33 42 68zM232 592z" />
    <glyph glyph-name="m.1" horiz-adv-x="720" 
d="M631 -42q147 -29 109 -148q-5 -15 -24 -43q-17 -22 -36 -34q-19 -15 -42 -22q-22 -8 -42 -8q-22 0 -46 6q-23 8 -39 25q-17 18 -26 52q-7 30 6 114q-34 -2 -68.5 -7t-59.5 -10t-65 -16.5t-59 -17.5t-68 -22.5t-69 -22.5q-15 -7 -26 -8l-75 86q108 26 174 40.5t158 28
t167 14.5q36 170 52 256q3 14 28 148q6 27 6 51q2 23 -9 26q-12 5 -38.5 -15t-39.5 -35q-25 -32 -38 -65l-2 -8q-3 -15 -29 -162t-29 -161h-133q12 71 71 391q9 58 -23.5 56t-71.5 -52q-17 -21 -28 -44q-2 -2 -3 -5l-69 -346h-138l99 500h140l-13 -66q40 48 92.5 65.5
t93.5 -6.5t46 -88q11 14 30 35q77 78 149 64q25 -6 45 -29q26 -37 20 -107q0 -2 -1 -15t-2 -21q-3 -21 -7 -56q-11 -62 -37 -180t-30 -138zM693 -177q14 30 -13 50.5t-60 22.5q-14 -63 1 -89q9 -15 26 -15t28 10q12 8 18 21z" />
    <glyph glyph-name="m.2" horiz-adv-x="767" 
d="M531 769q122 -3 225.5 -39.5t171 -103.5t78.5 -163t-53 -217q-38 -69 -99 -135.5t-123 -95.5q-39 -19 -76 -21t-65 12.5t-40 51t-2 90.5l2 10l3 18q32 163 41 210q12 60 -17 58q-30 -2 -72 -57q-22 -30 -35 -61q0 -2 -1 -4t-1 -4q-1 -7 -27.5 -155t-29.5 -163h-135
q69 382 70 386q10 60 -23 58t-74 -51q-18 -23 -29 -46l-3 -6l-69 -341h-141l99 500h143l-13 -69q41 49 95 67t96 -6.5t47 -89.5q26 36 58.5 61t63 34.5t58.5 5.5t45.5 -26.5t24 -61.5t-5.5 -100l-16 -82q-12 -58 -26 -129q-5 -25 7.5 -35t34.5 -5t45 22q63 45 116 138
q63 109 46.5 196.5t-84 146t-176 84.5t-229.5 11l91 107h4z" />
    <glyph glyph-name="m.3" horiz-adv-x="947" 
d="M895 159q67 -23 95.5 -84.5t16.5 -135.5q-9 -50 -39 -101.5t-70 -78.5q-78 -54 -240.5 -72.5t-370 -10t-448.5 26.5t-496.5 31.5t-492.5 12.5t-459 -38.5t-373 -114.5l37 211l2 2q108 49 275 75t354 28t404 -6.5t424 -28t414 -37t375.5 -33.5t307.5 -17t209 12
q110 23 107 138q-2 74 -67 114q-18 12 -49 19q-41 -43 -94 -62.5t-96 -13.5t-67.5 45t-11.5 104l48 243q12 61 -19 58q-30 -3 -72 -58q-22 -30 -35 -62q-2 -3 -3 -9q-48 -264 -56 -316h-137q5 29 68 387q11 59 -22 58t-74 -51q-19 -23 -31 -48l-2 -6l-70 -340h-143l99 500
h146l-14 -69q42 50 96.5 68t97.5 -7t48 -90q32 43 72 70.5t76 32t64.5 -12.5t37.5 -62.5t-4 -117.5l-42 -213q-4 -36 31 -35q41 0 85 42q31 30 41 64q15 0 39 -4v0q18 -3 28 -7z" />
    <glyph glyph-name="n.1" horiz-adv-x="501" 
d="M406 -47q65 -13 97 -53t10 -108q-6 -19 -24 -45q-11 -13 -35 -35q-21 -12 -43 -22q-24 -7 -43 -7q-16 0 -46 6q-21 6 -41 26q-15 15 -27 51q-7 34 7 118q-115 -5 -198.5 -25t-189.5 -67l-81 90q123 42 231 58.5t249 18.5q46 223 87 433q11 59 -26 56.5t-83 -53.5
q-27 -29 -39 -61l-63 -334h-139l101 500h134l-15 -73q32 35 71.5 56t75.5 22t65 -17t39.5 -60t-0.5 -107l-14 -78q-9 -47 -30.5 -149t-29.5 -141zM466 -194q14 30 -13.5 51.5t-60.5 22.5q-13 -70 1 -91q10 -16 25 -16q17 0 30 10q11 9 18 23z" />
    <glyph glyph-name="n.2" horiz-adv-x="729" 
d="M313 776q120 -3 222.5 -40t170 -104t78 -163t-53.5 -217q-37 -67 -98.5 -134t-122.5 -97q-27 -12 -44 -15q-39 -13 -73 -10q-53 2 -80.5 44.5t-12.5 123.5q2 14 4 19q6 31 18.5 100.5t19.5 105.5q11 58 -25 56.5t-82 -51.5q-27 -30 -40 -62l-65 -332h-139l101 500h134
l-14 -76q32 36 71.5 57t76 22t65.5 -16.5t39.5 -60t-0.5 -108.5l-15 -79q0 -3 -5.5 -29.5t-18.5 -98.5q-6 -29 6 -41.5t33 -9t41.5 12.5t35.5 20q60 43 114 137q62 108 47 195.5t-81 146t-173 84.5t-229 11z" />
    <glyph glyph-name="n.3" horiz-adv-x="702" 
d="M646 169q67 -22 95 -84t15 -135q-8 -50 -37.5 -101.5t-69.5 -79.5q-78 -53 -240 -72t-369.5 -10.5t-448.5 27t-496.5 32t-492 12.5t-457.5 -39t-372 -115l36 210q1 0 2 1l2 2q108 49 275 74.5t353.5 28t403 -6t423 -28t413 -37t374.5 -33t306.5 -16.5t208.5 12
q110 21 107 137q-2 75 -66 114q-32 17 -47 20q-40 -49 -92.5 -71.5t-95 -16t-66 50.5t-9.5 118q0 4 1.5 11.5t1.5 8.5q23 126 40 209q10 59 -26.5 57.5t-82.5 -52.5q-28 -31 -41 -64l-64 -333h-143l103 500h135l-14 -73q32 36 72.5 57t77 22t66.5 -17t40.5 -60.5
t-0.5 -109.5l-15 -79q-4 -20 -25 -130q-11 -60 25 -58t85 55q37 40 43 73q21 0 66 -11z" />
    <glyph glyph-name="p.1" horiz-adv-x="489" 
d="M123 -79q183 -3 487 -87l-112 -87q-13 0 -28 9q-22 8 -73 27.5t-74 27t-63.5 19.5t-76.5 18t-77 8q-24 -93 -44 -121q-20 -33 -46 -53q-30 -20 -52 -25q-30 -8 -51 -8t-41 9q-10 3 -35 21q-14 18 -21 36q-9 21 -6 46q9 123 174 153q77 391 117 586h141l-6 -29
q78 51 132.5 29t84 -81.5t28.5 -131.5q0 -102 -47 -187q-24 -44 -60 -73q-49 -34 -103 -34q-31 0 -69.5 13t-54.5 32q-5 -23 -13.5 -64.5t-10.5 -52.5zM225 421l-67 -327q21 -28 46 -33t46 7t39 35q31 41 48 121q7 43 8.5 85t-7.5 84t-36.5 49t-76.5 -21zM-69 -241
q25 25 38 91q-33 0 -70.5 -21.5t-35.5 -52.5q2 -14 9 -23q12 -12 27 -12q14 0 32 18z" />
    <glyph glyph-name="q.1" 
d="M374 -85q151 -30 111 -153q-10 -28 -24 -46q-11 -14 -37 -36q-25 -15 -43 -21q-22 -8 -44 -8q-20 0 -48 7q-23 8 -40 25q-20 22 -27 53q-7 28 5 120q-41 -2 -78 -7.5t-86.5 -18.5t-68.5 -18.5t-88.5 -28.5t-81.5 -27q-12 -5 -19 -6l-105 81q353 87 538 91l18 90
q-41 -18 -98 -18q-62 0 -98 33q-28 27 -43 74q-22 85 11 187q22 74 71 133t114.5 79.5t134.5 -33.5l7 35h137q-78 -390 -118 -587zM267 71l71 350q-28 23 -53.5 25.5t-44.5 -12.5t-34.5 -38.5t-26.5 -55t-18 -60t-10 -55.5q-9 -74 12 -120q14 -31 40 -41.5t64 7.5zM437 -223
q16 31 -12.5 52t-62.5 22q-13 -68 2 -92q9 -17 24 -17q19 0 32 12q14 11 17 23z" />
    <glyph glyph-name="t.1" horiz-adv-x="259" 
d="M298 172h39q-36 -99 -123 -150q-79 -47 -140 -22q-71 30 -61 142l6 37l57 263h-63l26 58h49q2 8 5.5 26.5t5.5 28.5q-109 10 -206 44t-112 80l32 95q33 -43 121.5 -92.5t176.5 -70.5q34 153 106 175q47 14 85 -31q38 -47 25 -103q-13 -63 -89 -90q-11 -49 -13 -62h79
l-27 -58h-65l-65 -335q-12 -58 24 -57q36 2 83 52q31 34 44 70zM242 602z" />
    <glyph glyph-name="t.2" horiz-adv-x="252" 
d="M296 172h40q-37 -99 -125 -151q-80 -46 -140 -20q-71 30 -59 144q1 16 5 34l55 263h-61l25 59h48q2 8 5 24.5t5 24.5q-45 2 -104.5 11.5t-98.5 18t-106.5 24t-83.5 19.5q-266 59 -409 19l134 144q130 -4 284 -56q34 -11 116.5 -43.5t151.5 -54.5t128 -31l5 23
q36 147 108 164q48 11 83 -35q38 -48 23 -104q-16 -60 -91 -85l-13 -63h82l-29 -59h-64l-66 -335q-12 -59 25.5 -57t83.5 53q31 33 43 69zM240 604z" />
    <glyph glyph-name="u.1" horiz-adv-x="712" 
d="M277 780q122 -3 225.5 -39.5t172 -103.5t79 -163t-53.5 -218q-37 -69 -91 -126.5t-112 -93.5q-64 -40 -127 -43h-14h-1q-35 2 -59 24.5t-31 65.5q-31 -39 -70.5 -62.5t-75 -26.5t-64.5 14t-39 60t1 111l64 321h136q-16 -85 -41 -212.5t-35 -181.5q-11 -60 20 -58
q33 3 76 57q16 20 27 41q1 11 67 354h135q-15 -82 -39 -208.5t-35 -185.5q-6 -32 7.5 -42.5t35 -4t48.5 23.5q46 29 76.5 62.5t64.5 87.5q68 106 54 192.5t-81 146t-175 87t-228 15.5l67 104q5 2 16 2z" />
    <glyph glyph-name="u.2" horiz-adv-x="647" 
d="M589 172q66 -22 94 -82.5t15 -134.5q-8 -50 -37 -101t-69 -78q-77 -53 -236 -71.5t-362.5 -10t-440 26.5t-488.5 31.5t-485 13t-452 -36.5t-370 -110l26 204l1 1q121 55 317.5 80.5t414 22.5t467 -17.5t477 -38.5t443 -41t365.5 -24.5t245 10.5q109 24 106 138
q0 34 -17.5 64t-48.5 48q-10 6 -43 18q-43 -55 -98 -78.5t-99 -4t-54 80.5q-31 -38 -70 -61.5t-74.5 -26.5t-64.5 14.5t-39 60t1 110.5l64 321h134q-21 -115 -76 -393q-11 -61 21 -59q33 3 77 58q15 19 26 39q2 15 66 355h136q-11 -60 -27 -142.5t-27 -141t-20 -109.5
q-12 -59 21 -56q32 3 74 54q34 41 40 78q21 0 39 -3v0q19 -3 28 -8z" />
    <glyph glyph-name="s.1" horiz-adv-x="465" 
d="M463 330l-100 61q18 62 -42 70q-37 3 -70 -18q-18 -10 -28.5 -28.5t-7.5 -33.5q1 -8 2 -13t4.5 -10.5t4.5 -6.5t9 -10q20 -20 68 -45q63 -35 81 -49q38 -29 49 -63q15 -51 -10 -93t-72 -66t-106 -32q-11 -43 -37 -85.5t-59 -64.5q-71 -49 -224 -71t-350 -22.5t-426 7
t-472.5 11t-468 -4.5t-433 -45.5t-348.5 -105.5l-176 182q117 56 318.5 87t429.5 36.5t490.5 1.5t502.5 -18.5t465 -23t378 -12t242 14.5q94 18 96 111q-62 3 -106 27.5t-53 67.5q-18 81 37 114q47 29 107 3q69 -30 87 -110q3 -13 4 -27q28 19 40 51q16 40 -52 84
q-14 9 -38 23t-38 23q-47 31 -72 66q-32 43 -18.5 92.5t73.5 76.5q71 29 161 22q120 -9 153 -87q16 -41 5 -87zM168 44z" />
    <glyph glyph-name="x.1" horiz-adv-x="678" 
d="M246 781q122 -3 226 -39.5t172.5 -104.5t79.5 -164.5t-53 -218.5q-46 -85 -116.5 -155t-150.5 -94q-40 -12 -69.5 -11t-47 9t-32 31.5t-22 44t-19.5 59.5q-1 2 -1.5 3.5t-0.5 3.5l-129 -145h-68q138 156 181 203l-87 297h142l47 -162q27 31 80.5 92t61.5 70h68l-193 -220
l58 -203q4 -15 18 -17.5t32.5 5t32 15t23.5 14.5q62 43 116 138q62 107 48 194t-78.5 146.5t-170 87t-226.5 15.5l74 106h4z" />
    <glyph glyph-name="x.2" horiz-adv-x="635" 
d="M573 172q66 -22 94.5 -83.5t15.5 -135.5q-9 -49 -38.5 -100t-68.5 -79q-77 -53 -237 -71.5t-364.5 -10.5t-442 26t-490 32t-487 13.5t-454.5 -36.5t-372 -110l26 206q107 49 273 74.5t352 27.5t401 -6.5t421 -27.5t411.5 -36.5t372.5 -33.5t304.5 -17.5t207.5 11.5
q109 22 106 137q-2 75 -66 114q-10 6 -22 10q-36 -52 -97 -73.5t-116.5 0t-73.5 83.5l-19 61l-129 -147h-69q63 72 182 206l-85 294h26h115l46 -160l78 87t65 73h68l-194 -219l58 -203q12 -42 55 -25q40 17 65 64q10 19 13 38v2v15h1l1 11q15 0 39 -4v0q16 -2 28 -7z" />
    <glyph glyph-name="y.1" horiz-adv-x="478" 
d="M384 -7q181 -5 461 -80l-102 -89q-23 8 -92 34t-97 35t-81.5 20.5t-104.5 14.5q-25 -91 -42 -118q-20 -33 -47 -52q-30 -20 -52 -25q-30 -7 -48 -7q-21 0 -40 8q-21 7 -35 23q-14 14 -20 33q-9 17 -7 46q10 119 170 150l16 80q-32 -33 -71.5 -52t-75 -19.5t-64 18
t-38.5 60t2 106.5l65 321h137q-17 -81 -42.5 -212t-35.5 -180q-12 -59 25.5 -56.5t83.5 52.5q19 20 31 42l72 354h136q-9 -43 -31 -157t-38.5 -194.5t-34.5 -155.5zM195 -167q26 28 38 91q-33 -2 -69.5 -23t-33.5 -51q0 -14 9 -23q8 -11 26 -11q14 0 30 17z" />
    <glyph glyph-name="y.2" horiz-adv-x="479" 
d="M388 3q133 32 256 44l-47 -115q-155 10 -227 -5q-24 -90 -42 -117q-22 -33 -48 -52q-25 -17 -52 -25q-30 -7 -49 -7q-21 0 -40 8q-19 7 -33 23q-14 12 -22 34q-8 20 -6 44q2 20 7 36.5t16.5 29.5t20 21.5t28 17.5t28.5 13t34.5 12.5t33.5 11.5q1 7 8 38.5t10 49.5
q-40 -42 -90 -59.5t-90.5 -7.5t-61 57t-5.5 125l64 320h137q-43 -222 -76 -392q-11 -58 25 -57t82 52q19 20 32 43l72 354h137q-82 -411 -102 -497zM196 -167q25 22 36 76q-4 -1 -24.5 -5t-29.5 -7t-23 -9.5t-19.5 -16t-4.5 -22.5q0 -13 9 -22q9 -11 25 -11q15 0 31 17z" />
    <glyph glyph-name="y.3" horiz-adv-x="477" 
d="M1443 -63l-98 -166q-187 13 -554 80t-422 74l-9 -34q-17 -58 -33 -84q-20 -31 -47 -52q-27 -18 -52 -25q-80 -19 -123 24q-13 11 -23 34q-6 22 -5 45q10 120 170 152l17 79q-41 -42 -91 -59.5t-90.5 -8t-61.5 56.5t-5 125l64 322h138q-18 -89 -45.5 -230t-31.5 -163
q-12 -60 26 -57q37 2 82 53q19 20 31 42l72 355h138q-83 -417 -94 -465l-11 -43q70 -2 179.5 -15t215.5 -27.5t221 -26t231 -9.5t211 23zM196 -170q26 28 38 92q-33 -2 -69.5 -23.5t-35.5 -51.5q2 -14 10 -22q8 -11 26 -11q15 0 31 16z" />
    </font>
</defs>
</svg>
